<?xml version="1.0" encoding="utf-8"?>
<!-- Generator: Adobe Illustrator 27.0.0, SVG Export Plug-In . SVG Version: 6.00 Build 0)  -->
<svg version="1.1" id="Layer_1" xmlns="http://www.w3.org/2000/svg" xmlns:xlink="http://www.w3.org/1999/xlink" x="0px" y="0px"
	 viewBox="0 0 1080 1080" style="enable-background:new 0 0 1080 1080;" xml:space="preserve">
<style type="text/css">
	.st0{fill:#C69C6D;stroke:#000000;stroke-linecap:round;}
	.st1{fill:#C1272D;stroke:#000000;stroke-linecap:round;}
	.st2{fill:#FFFFFF;stroke:#000000;stroke-linecap:round;}
	.st3{stroke:#000000;stroke-linecap:round;}
	.st4{fill:none;stroke:#000000;stroke-linecap:round;}
	.st5{fill:#B3B3B3;stroke:#000000;stroke-linecap:round;}
	.st6{fill:#00FFFF;stroke:#C69C6D;stroke-width:16;stroke-linecap:round;}
</style>
<path class="st0" d="M419.64,739.18H386.1c-7.55,0-13.72-6.18-13.72-13.72v-52.03c0-7.55,6.18-13.72,13.72-13.72h33.54
	c7.55,0,13.72,6.18,13.72,13.72v52.03C433.37,733,427.19,739.18,419.64,739.18z"/>
<path class="st0" d="M744.71,739.18h-33.54c-7.55,0-13.72-6.18-13.72-13.72v-52.03c0-7.55,6.18-13.72,13.72-13.72h33.54
	c7.55,0,13.72,6.18,13.72,13.72v52.03C758.43,733,752.25,739.18,744.71,739.18z"/>
<path class="st0" d="M764.71,687.77H353.66c-7.55,0-13.72-6.18-13.72-13.72V644.4c0-7.55,6.18-13.72,13.72-13.72h411.05
	c7.55,0,13.72,6.18,13.72,13.72v29.64C778.44,681.59,772.26,687.77,764.71,687.77z"/>
<ellipse class="st1" cx="218.91" cy="-107.42" rx="51.12" ry="38.72"/>
<ellipse transform="matrix(3.316162e-03 -1 1 3.316162e-03 349.7885 130.9246)" class="st2" cx="240.57" cy="-110.01" rx="7.94" ry="10.46"/>
<ellipse class="st3" cx="237.37" cy="-109.94" rx="3.03" ry="2.29"/>
<ellipse class="st2" cx="199.25" cy="-109.94" rx="10.29" ry="7.79"/>
<ellipse class="st3" cx="199.25" cy="-109.94" rx="3.03" ry="2.29"/>
<line class="st4" x1="234.34" y1="-121.86" x2="222.24" y2="-113.61"/>
<line class="st4" x1="204.54" y1="-122.55" x2="214.07" y2="-112.55"/>
<line class="st4" x1="208.51" y1="-88.82" x2="220.55" y2="-98.98"/>
<line class="st4" x1="205.6" y1="-88.52" x2="224.05" y2="-89.21"/>
<path class="st4" d="M208.3-76.32c0.59-0.59,3.75-3.61,10.32-4.54c6.14-0.86,12.85,0.45,17.2,3.34"/>
<path class="st5" d="M169.16-124.28c-5.66-2.82-10.51-9.29-9.36-15.2c1.26-6.48,9.41-10.61,15.61-11.03
	c4.75-0.32,8.79,1.53,9.05,0.89c0.37-0.88-8.18-2.68-10.3-8.05c-2.36-5.96,3.16-16.46,11.24-17.88c7.57-1.33,14.64,5.8,17.48,10.43
	c2.38,3.86,2.95,7.83,4.37,7.75c1.42-0.08,1.12-4.04,3.75-7.75c2.94-4.15,9.27-7.61,15.92-6.56c6.07,0.96,11.99,5.62,12.49,10.73
	c0.53,5.49-5.39,9.67-4.37,10.73c1.09,1.13,6.73-4.76,15.61-5.96c2.19-0.29,11.34-1.21,16.54,4.47c3.08,3.36,4.81,9.08,2.5,11.92
	c-2.78,3.41-10.34,1.37-10.61,2.68c-0.29,1.39,8.41,2.23,13.42,8.34c3.17,3.86,5.32,10.4,2.81,13.11
	c-3.11,3.36-12.6,0.05-31.53-6.56c-9.65-3.37-10.9-4.33-16.23-5.36c-3.48-0.67-9.93-1.61-23.1-0.3
	c-22.67,2.26-27.53,7.43-35.27,3.58L169.16-124.28z"/>
<rect x="404" y="324" class="st6" width="310" height="299"/>
</svg>
