<?xml version="1.0" encoding="utf-8"?>
<!-- Generator: Adobe Illustrator 27.0.0, SVG Export Plug-In . SVG Version: 6.00 Build 0)  -->
<svg version="1.1" id="Layer_1" xmlns="http://www.w3.org/2000/svg" xmlns:xlink="http://www.w3.org/1999/xlink" x="0px" y="0px"
	 viewBox="0 0 1080 1080" style="enable-background:new 0 0 1080 1080;" xml:space="preserve">
<style type="text/css">
	.st0{fill:#C7B299;}
	.st1{fill:#6A5C00;stroke:#000000;stroke-linecap:round;}
	.st2{fill:#6A5C00;}
	.st3{stroke:#000000;stroke-linecap:round;}
	.st4{fill:#FFFFFF;stroke:#000000;stroke-linecap:round;}
	.st5{fill:#FFFFFF;}
	.st6{fill:#8C6239;}
</style>
<g>
	<path class="st0" d="M1061.51,1080.5H9.49c-37.55,0-67.99-30.44-67.99-67.99v-1.52c0-37.55,30.44-67.99,67.99-67.99h1052.02
		c37.55,0,67.99,30.44,67.99,67.99v1.52C1129.5,1050.06,1099.06,1080.5,1061.51,1080.5z"/>
	<path d="M1061.51,1081H9.49c-37.77,0-68.49-30.73-68.49-68.49v-1.52c0-37.77,30.73-68.49,68.49-68.49h1052.02
		c37.77,0,68.49,30.73,68.49,68.49v1.52C1130,1050.27,1099.27,1081,1061.51,1081z M9.49,943.5c-37.22,0-67.49,30.28-67.49,67.49
		v1.52c0,37.21,30.28,67.49,67.49,67.49h1052.02c37.21,0,67.49-30.28,67.49-67.49v-1.52c0-37.21-30.28-67.49-67.49-67.49H9.49z"/>
</g>
<rect x="-0.5" y="1050.68" class="st1" width="1080" height="8.13"/>
<g>
	<rect x="0.5" y="965.08" class="st2" width="1080" height="8.13"/>
	<path d="M1081,973.71H0v-9.13h1081V973.71z M1,972.71h1079v-7.13H1V972.71z"/>
</g>
<g>
	<rect x="-0.5" y="980.18" class="st2" width="1080" height="8.13"/>
	<path d="M1080,988.82H-1v-9.13h1081V988.82z M0,987.82h1079v-7.13H0V987.82z"/>
</g>
<g>
	<rect x="-0.5" y="996.06" class="st2" width="1080" height="8.13"/>
	<path d="M1080,1004.7H-1v-9.13h1081V1004.7z M0,1003.7h1079v-7.13H0V1003.7z"/>
</g>
<g>
	<rect x="-0.5" y="1020.46" class="st2" width="1080" height="8.13"/>
	<path d="M1080,1029.1H-1v-9.13h1081V1029.1z M0,1028.1h1079v-7.13H0V1028.1z"/>
</g>
<g>
	<rect x="-0.5" y="1035.57" class="st2" width="1080" height="8.13"/>
	<path d="M1080,1044.2H-1v-9.13h1081V1044.2z M0,1043.2h1079v-7.13H0V1043.2z"/>
</g>
<g id="Layer_20">
	<g id="Layer_22">
		<g>
			<g>
				<path class="st3" d="M1091.24,619.75L1091.24,619.75z"/>
			</g>
			<g>
				<path class="st4" d="M796.24,710.75L796.24,710.75z"/>
			</g>
			<g>
				<path class="st5" d="M1041.24,571.75h30c5.52,0,10,4.48,10,10v18c0,5.52-4.48,10-10,10h-30c-5.52,0-10-4.48-10-10v-18
					C1031.24,576.22,1035.72,571.75,1041.24,571.75z"/>
				<path d="M1071.24,610.25h-30c-5.79,0-10.5-4.71-10.5-10.5v-18c0-5.79,4.71-10.5,10.5-10.5h30c5.79,0,10.5,4.71,10.5,10.5v18
					C1081.74,605.54,1077.03,610.25,1071.24,610.25z M1041.24,572.25c-5.24,0-9.5,4.26-9.5,9.5v18c0,5.24,4.26,9.5,9.5,9.5h30
					c5.24,0,9.5-4.26,9.5-9.5v-18c0-5.24-4.26-9.5-9.5-9.5H1041.24z"/>
			</g>
			<g>
				<rect x="1032.24" y="590.75" class="st5" width="50" height="225"/>
				<path d="M1082.74,816.25h-51v-226h51V816.25z M1032.74,815.25h49v-224h-49V815.25z"/>
			</g>
			<g>
				<rect x="841.24" y="812.75" class="st5" width="240" height="132"/>
				<path d="M1081.74,945.25h-241v-133h241V945.25z M841.74,944.25h239v-131h-239V944.25z"/>
			</g>
			<g>
				<rect x="841.24" y="788.75" class="st5" width="193" height="23"/>
				<path d="M1034.74,812.25h-194v-24h194V812.25z M841.74,811.25h192v-22h-192V811.25z"/>
			</g>
			<g>
				<path class="st5" d="M845.24,781.75h176c4.42,0,8,3.58,8,8l0,0c0,4.42-3.58,8-8,8h-176c-4.42,0-8-3.58-8-8l0,0
					C837.24,785.33,840.82,781.75,845.24,781.75z"/>
				<path d="M1021.24,798.25h-176c-4.69,0-8.5-3.81-8.5-8.5s3.81-8.5,8.5-8.5h176c4.69,0,8.5,3.81,8.5,8.5
					S1025.93,798.25,1021.24,798.25z M845.24,782.25c-4.14,0-7.5,3.36-7.5,7.5s3.36,7.5,7.5,7.5h176c4.14,0,7.5-3.36,7.5-7.5
					s-3.36-7.5-7.5-7.5H845.24z"/>
			</g>
		</g>
	</g>
</g>
<g>
	<path d="M115.48,632.91c0.01-0.01,0.02-0.03,0.03-0.06c0.01-0.03,0.02-0.05,0.02-0.07v-0.04v-0.03c0-0.02-0.01-0.04-0.02-0.07
		c-0.01-0.03-0.02-0.04-0.03-0.05c-0.1,0.02-0.18,0.07-0.25,0.15c-0.07,0.08-0.11,0.17-0.11,0.27v0.04
		c0.01,0.02,0.03,0.05,0.07,0.11c0.04,0.05,0.06,0.08,0.06,0.09c0,0.04-0.04,0.07-0.11,0.07c-0.07,0-0.11,0.01-0.13,0.01
		c-0.02,0-0.05,0-0.09-0.01c-0.04,0-0.06-0.01-0.07-0.01c-0.04-0.01-0.06-0.03-0.07-0.06c-0.01-0.03-0.02-0.06-0.03-0.1
		c-0.01-0.04-0.02-0.07-0.03-0.11c-0.01-0.04-0.04-0.06-0.07-0.08c-0.13-0.06-0.24-0.13-0.31-0.21s-0.14-0.17-0.19-0.26
		s-0.08-0.19-0.11-0.3c-0.02-0.11-0.05-0.24-0.07-0.38c0-0.02-0.01-0.03-0.03-0.05s-0.03-0.02-0.04-0.02s-0.02,0.01-0.04,0.02
		s-0.03,0.03-0.03,0.05c-0.01,0.03-0.01,0.08-0.01,0.17c0,0.09,0,0.14,0.01,0.16l-0.15,0.08c0.04-0.07,0.02-0.16-0.04-0.28
		s-0.09-0.21-0.09-0.29c0-0.09,0.02-0.16,0.07-0.2c0.05-0.04,0.07-0.11,0.07-0.21c0-0.07,0-0.14-0.01-0.21s-0.03-0.15-0.05-0.25
		c-0.05,0.07-0.1,0.17-0.13,0.29c-0.03,0.12-0.06,0.21-0.07,0.27c-0.05-0.02-0.08-0.05-0.08-0.09c0-0.04,0-0.08,0-0.11
		c0-0.08,0.01-0.22,0.02-0.43c0.01-0.21,0.03-0.42,0.06-0.64c0.03-0.22,0.06-0.43,0.09-0.62c0.04-0.19,0.07-0.31,0.11-0.35
		c0.06-0.08,0.11-0.14,0.15-0.18c0.04-0.04,0.07-0.07,0.1-0.11c0.03-0.03,0.06-0.07,0.1-0.11c0.04-0.04,0.08-0.11,0.13-0.21
		c0.01-0.02,0.02-0.04,0.03-0.05c0.01-0.02,0.02-0.02,0.03-0.01l0.34,0.12l0.13,0.56h0.19c0,0.02,0,0.07,0.01,0.17
		c0,0.09,0.01,0.15,0.02,0.17s0.02,0.04,0.03,0.07c0,0.02,0.01,0.04,0.03,0.05c0.01,0.01,0.01,0.02,0.01,0.03
		c0,0.03-0.01,0.08-0.03,0.17s-0.03,0.14-0.04,0.17c-0.01,0.02-0.03,0.05-0.07,0.11c-0.04,0.05-0.06,0.08-0.07,0.09
		c0,0.01,0,0.04,0,0.08c0,0.04,0,0.09,0,0.13s0,0.09,0,0.13s0,0.07,0,0.08c0,0.01-0.02,0.03-0.06,0.05
		c-0.04,0.03-0.06,0.05-0.06,0.07v0.21c0,0.07,0.01,0.15,0.03,0.22c0.02,0.08,0.08,0.12,0.17,0.12c0.23,0,0.43-0.06,0.6-0.17
		s0.31-0.25,0.43-0.42s0.22-0.35,0.31-0.55c0.09-0.2,0.17-0.38,0.25-0.55c0.08-0.17,0.16-0.31,0.23-0.42
		c0.08-0.11,0.17-0.17,0.27-0.17c0.1,0,0.18,0.04,0.26,0.12s0.14,0.17,0.19,0.29c0.05,0.11,0.09,0.23,0.12,0.34s0.04,0.22,0.05,0.3
		c0.04-0.04,0.07-0.06,0.09-0.04s0.05,0.04,0.07,0.08s0.03,0.09,0.04,0.16l0.13-0.15c0.02,0,0.03,0.01,0.05,0.03
		c0.01,0.02,0.02,0.03,0.02,0.04s-0.01,0.03-0.03,0.07c-0.02,0.04-0.03,0.06-0.03,0.07v0.09c0,0.08,0.03,0.14,0.08,0.18
		c0.05,0.04,0.12,0.07,0.19,0.08c0.07,0.01,0.15,0.02,0.23,0.01c0.08-0.01,0.14-0.01,0.19-0.01c0.03,0.1,0.08,0.17,0.16,0.23
		c0.08,0.05,0.17,0.1,0.26,0.13s0.19,0.06,0.29,0.09c0.1,0.02,0.18,0.05,0.25,0.09c0.01,0.01,0.03,0.03,0.07,0.07
		c0.04,0.04,0.06,0.06,0.08,0.07c0,0.01,0.02,0,0.05-0.02c0.04-0.02,0.06-0.03,0.07-0.03h0.04h0.04c0.01,0,0.03,0.01,0.07,0.02
		c0.04,0.01,0.08,0.03,0.13,0.04c0.04,0.01,0.09,0.03,0.13,0.04c0.04,0.01,0.07,0.03,0.08,0.03h0.04h0.03
		c0.06-0.03,0.14-0.05,0.23-0.07s0.18-0.05,0.27-0.08c0.09-0.03,0.16-0.07,0.22-0.12c0.06-0.05,0.09-0.12,0.09-0.21
		c0-0.12-0.02-0.27-0.07-0.42c-0.05-0.16-0.11-0.32-0.19-0.47c-0.08-0.16-0.17-0.3-0.27-0.43c-0.1-0.13-0.19-0.23-0.29-0.3
		c-0.05-0.03-0.13-0.07-0.22-0.12c-0.09-0.05-0.19-0.11-0.28-0.17c-0.09-0.06-0.17-0.12-0.24-0.19s-0.1-0.14-0.1-0.21
		c0-0.01,0-0.03,0.01-0.06c0-0.03,0.01-0.05,0.01-0.06l0.15,0.12c0.03-0.14,0.05-0.29,0.07-0.44s0.04-0.3,0.05-0.45
		c0.1-0.04,0.17-0.08,0.22-0.12c0.05-0.04,0.07-0.1,0.07-0.2c0-0.01,0.01-0.02,0.04-0.02c0.03,0,0.05,0,0.08,0
		c0.03,0,0.05,0.01,0.06,0.01c0.01,0,0.01,0.01-0.02,0.01c0-0.02,0.02-0.01,0.06,0.01c0.04,0.03,0.06,0.04,0.07,0.03
		c0.1-0.03,0.14-0.02,0.13,0.01c-0.01,0.04-0.01,0.08-0.01,0.13c0,0.02,0.01,0.04,0.04,0.06c0.03,0.02,0.05,0.05,0.08,0.07
		s0.05,0.05,0.07,0.07s0.01,0.03-0.01,0.04l-0.07,0.36c0,0.01,0,0.06,0.01,0.17c0,0.1,0.03,0.17,0.07,0.21h0.04h0.03
		c0-0.12,0-0.21-0.01-0.28c-0.01-0.07-0.02-0.16-0.03-0.28c0-0.01,0-0.02,0.01-0.04s0.02-0.04,0.03-0.07
		c0.01-0.03,0.02-0.06,0.04-0.09c0.02,0,0.04,0.01,0.07,0.03c0.03,0.02,0.05,0.03,0.06,0.03s0.03,0.01,0.05,0.05
		c0.03,0.03,0.04,0.04,0.05,0.02c0.02,0.06,0.04,0.13,0.07,0.21c0.03,0.07,0.07,0.15,0.11,0.21s0.09,0.12,0.14,0.17
		c0.05,0.04,0.09,0.07,0.14,0.07v-0.17h0.08c0.02,0,0.05,0.04,0.1,0.11c0.05,0.07,0.08,0.13,0.1,0.17c0.01,0.03,0.02,0.08,0.05,0.16
		c0.02,0.08,0.04,0.16,0.07,0.25c0.02,0.08,0.04,0.17,0.06,0.24c0.02,0.08,0.03,0.13,0.03,0.16c0.04,0.07,0.06,0.1,0.08,0.09
		c0.02-0.01,0.04-0.02,0.05-0.03c0.02-0.01,0.04-0.01,0.05,0.02s0.04,0.11,0.08,0.25c0.01,0.02,0.02,0.04,0.04,0.05
		c0.02,0.02,0.04,0.03,0.05,0.03l-0.28,0.76c-0.01,0.02,0,0.03,0.04,0.03s0.08,0,0.13,0.01s0.1,0.02,0.15,0.03
		c0.04,0.01,0.07,0.03,0.08,0.06c0.04,0.1,0.06,0.19,0.07,0.29c0.01,0.1,0.01,0.2,0.01,0.29c0,0.14-0.04,0.26-0.13,0.36
		c-0.09,0.1-0.19,0.19-0.29,0.27c-0.03-0.02-0.05-0.04-0.07-0.08c-0.02-0.04-0.04-0.07-0.06-0.12l-0.07,0.07
		c0,0.01-0.01,0.03-0.02,0.07c-0.01,0.04-0.03,0.07-0.04,0.11c-0.01,0.04-0.03,0.08-0.04,0.11c-0.01,0.03-0.02,0.05-0.03,0.05
		c-0.02,0.02-0.07,0.02-0.15,0.01c-0.08-0.01-0.12-0.01-0.13-0.01c-0.02,0.02-0.03,0.05-0.03,0.09c0,0.04-0.01,0.08-0.02,0.12
		c-0.01,0.04-0.02,0.08-0.04,0.12c-0.02,0.04-0.05,0.05-0.09,0.05c0-0.04,0-0.07-0.01-0.1c-0.01-0.03-0.03-0.05-0.07-0.06
		c-0.02,0-0.04,0.02-0.07,0.05s-0.05,0.06-0.06,0.08c-0.01,0.01,0,0.04,0.02,0.09c0.02,0.05,0.04,0.09,0.05,0.11v0.03
		c0,0.08-0.02,0.19-0.05,0.32c-0.03,0.13-0.09,0.22-0.17,0.27c0-0.01-0.01-0.02-0.03-0.03c-0.02-0.01-0.03-0.02-0.04-0.03v-0.03
		c0-0.07,0.01-0.14,0.03-0.21c0.02-0.07,0.03-0.13,0.03-0.21c-0.07,0-0.1,0.03-0.09,0.09c0.01,0.06-0.03,0.11-0.11,0.15
		c-0.07-0.04-0.12-0.1-0.14-0.17c-0.02-0.07-0.06-0.13-0.11-0.18l0.07-0.07c-0.02-0.04-0.07-0.05-0.15-0.02
		c-0.08,0.03-0.13,0.05-0.16,0.05c0.01-0.03,0.02-0.05,0.04-0.08l0.05-0.08c0-0.02,0.02-0.04,0.06-0.08
		c0.04-0.04,0.07-0.05,0.09-0.05c0.01,0,0.03,0,0.06,0.01s0.05,0.02,0.05,0.04v-0.04c0-0.07-0.05-0.12-0.15-0.14
		s-0.17-0.03-0.22-0.03c0-0.03-0.01-0.05-0.03-0.07l-0.03-0.05c-0.01-0.02-0.03-0.04-0.05-0.07c0.02-0.01,0.04-0.02,0.08-0.03
		s0.06-0.03,0.08-0.05l-0.01-0.01c-0.01,0-0.02,0-0.03-0.01c-0.13,0-0.23,0.05-0.28,0.14s-0.11,0.21-0.17,0.36
		c-0.04-0.04-0.08-0.05-0.09-0.03s-0.04,0.06-0.05,0.11c-0.02,0.05-0.04,0.1-0.07,0.14s-0.07,0.06-0.12,0.05
		c-0.02,0-0.04-0.02-0.07-0.06c-0.03-0.04-0.05-0.06-0.06-0.06h-0.01c-0.01,0-0.02,0-0.03-0.01c-0.01,0-0.01,0-0.01,0.01
		c0,0,0,0.01-0.01,0.01h-0.01c-0.04,0.02-0.07,0.05-0.09,0.11c-0.01,0.05-0.02,0.11-0.03,0.17c-0.01,0.06-0.01,0.14,0,0.24
		c-0.03-0.11-0.06-0.18-0.11-0.21s-0.1-0.06-0.15-0.07s-0.1-0.02-0.15-0.03c-0.04-0.01-0.07-0.04-0.08-0.08
		c0.02-0.06,0.03-0.12,0.03-0.16c0-0.04-0.01-0.08-0.02-0.12c-0.01-0.04-0.04-0.05-0.07-0.05c0.01,0.09-0.03,0.15-0.13,0.17
		c-0.09,0.03-0.16,0.04-0.19,0.04c0.02-0.12,0.02-0.22,0.01-0.31c-0.01-0.09-0.08-0.13-0.19-0.13c-0.07,0-0.12,0.02-0.15,0.06
		c-0.03,0.04-0.06,0.1-0.09,0.17c-0.04-0.04-0.06-0.08-0.08-0.15c-0.02-0.06-0.04-0.12-0.05-0.19c-0.02-0.06-0.04-0.11-0.07-0.16
		c-0.03-0.04-0.07-0.07-0.13-0.07c-0.06,0-0.1,0.01-0.13,0.03c-0.02,0.02-0.05,0.05-0.09,0.11l-0.21-0.25h-0.11
		c0,0.13-0.01,0.22-0.03,0.27s-0.04,0.08-0.06,0.1s-0.04,0.03-0.06,0.05c-0.02,0.01-0.03,0.05-0.03,0.11c0,0.01,0.01,0.03,0.04,0.07
		c0.03,0.04,0.04,0.06,0.04,0.07v0.01c0,0.07-0.02,0.13-0.07,0.19c-0.05,0.06-0.1,0.11-0.17,0.15c-0.06,0.04-0.12,0.08-0.18,0.11
		c-0.06,0.03-0.1,0.05-0.13,0.06c0,0.01-0.02,0.04-0.05,0.09s-0.06,0.09-0.08,0.11c-0.01,0.02-0.02,0.04-0.03,0.08
		c-0.01,0.04-0.02,0.06-0.03,0.07s-0.02,0.01-0.03,0.01h-0.03l-0.04-0.01c-0.01-0.01-0.02-0.04-0.03-0.1
		c-0.01-0.06-0.02-0.09-0.03-0.1l-0.03-0.01c-0.04,0-0.08,0.02-0.1,0.05c-0.02,0.04-0.04,0.07-0.05,0.11
		c-0.01,0.04-0.01,0.08-0.01,0.13c0,0.04,0.01,0.07,0.01,0.08c-0.07,0-0.12-0.03-0.13-0.09s-0.03-0.12-0.03-0.19
		c0-0.07-0.01-0.12-0.02-0.17C115.58,632.92,115.54,632.9,115.48,632.91z M113.69,629.59c-0.02-0.01-0.03,0-0.03,0.02
		s0.01,0.03,0.03,0.03c0.03,0,0.04-0.01,0.04-0.03S113.72,629.59,113.69,629.59z M114.56,632.62c0,0.04,0,0.08,0.01,0.13
		c0,0.05,0.03,0.08,0.07,0.09c0.01,0,0.02-0.01,0.04-0.03s0.03-0.03,0.03-0.04l0.01-0.04c0-0.04-0.02-0.07-0.05-0.09
		C114.63,632.63,114.6,632.62,114.56,632.62z M115.2,631.7c-0.03,0.01-0.06,0.05-0.11,0.11s-0.1,0.14-0.15,0.23s-0.1,0.16-0.13,0.24
		c-0.04,0.08-0.05,0.13-0.05,0.15h0.11l0.34-0.54V631.7z M115.05,632.7c-0.05,0-0.09,0.02-0.11,0.07c-0.02,0.05-0.03,0.1-0.03,0.14
		h0.15V632.7z M115.65,632.15c0,0.08,0,0.19,0,0.34c0,0.15,0.03,0.26,0.08,0.35v-0.46c0-0.01,0.01-0.03,0.04-0.07
		c0.03-0.04,0.04-0.06,0.04-0.07c0-0.04-0.02-0.07-0.07-0.07C115.7,632.16,115.67,632.15,115.65,632.15z M116.21,631.42l0.07-0.07
		l-0.07-0.08l-0.07,0.08L116.21,631.42z M116.28,631.08c0.01-0.03,0-0.04-0.03-0.04c-0.03,0-0.04,0.01-0.03,0.04
		c0.01,0.03,0.02,0.04,0.04,0.04S116.28,631.11,116.28,631.08z M116.62,632.51h0.07l-0.07-0.08V632.51z M117.1,630.93
		c0,0.02,0.01,0.04,0.03,0.08c0.02,0.04,0.03,0.06,0.04,0.07c0,0.01,0,0.01,0.01,0.01h0.03c0.01,0,0.02,0,0.03-0.01
		c0.03-0.05,0.08-0.13,0.16-0.23c0.08-0.1,0.12-0.18,0.12-0.23c0-0.04-0.01-0.07-0.02-0.1c-0.01-0.03-0.04-0.05-0.09-0.05
		c-0.01,0-0.01,0-0.01,0.01c0,0,0,0.01-0.01,0.01h-0.01c-0.06,0.04-0.12,0.11-0.18,0.19c-0.06,0.08-0.09,0.16-0.09,0.23V630.93z
		 M118.04,631.36h0.16c0-0.1-0.04-0.15-0.12-0.15c0,0.01,0,0.01-0.01,0.01h-0.03V631.36z M118.71,632.64l0.07,0.07
		c0.05-0.02,0.08-0.05,0.09-0.1s0.01-0.09,0.01-0.13c-0.04,0-0.07,0.01-0.11,0.03s-0.06,0.05-0.06,0.11V632.64z M118.78,631.82
		l0.07-0.07h-0.07V631.82z M118.99,631.23c0,0.01,0.01,0.04,0.03,0.09c0.02,0.05,0.04,0.09,0.05,0.11c0.01-0.02,0.02-0.04,0.03-0.08
		c0.01-0.04,0.02-0.06,0.02-0.07v-0.04v-0.01c0-0.01-0.01-0.02-0.02-0.04c-0.01-0.02-0.02-0.03-0.03-0.04
		c-0.01,0-0.02,0.01-0.05,0.03C119,631.2,118.99,631.22,118.99,631.23z M118.99,631.62c0.02,0.04,0.04,0.09,0.08,0.15
		c0.04,0.05,0.08,0.09,0.12,0.12c0.05-0.01,0.08-0.04,0.09-0.09c0-0.05,0.01-0.08,0.01-0.1s0-0.06-0.01-0.12
		c0-0.06-0.03-0.09-0.09-0.09c-0.02,0-0.05,0.02-0.1,0.05C119.04,631.57,119.01,631.6,118.99,631.62z M118.99,631.96h0.08
		l-0.08-0.07V631.96z M119.62,632.1c-0.04,0-0.05,0.02-0.05,0.07s0.02,0.07,0.05,0.07c0.03,0,0.04-0.02,0.04-0.07
		S119.64,632.1,119.62,632.1z M119.82,628.71c-0.01,0.02,0,0.03,0.01,0.05c0.02,0.01,0.03,0.02,0.04,0.02
		c0.06,0,0.13-0.03,0.19-0.09s0.1-0.12,0.1-0.17c0-0.12-0.08-0.19-0.23-0.19L119.82,628.71z M120.93,632.27
		c-0.07,0-0.11,0.03-0.13,0.08c-0.02,0.05-0.03,0.11-0.04,0.16h0.04c0.07,0,0.11-0.03,0.12-0.09
		C120.92,632.37,120.93,632.32,120.93,632.27z M120.97,631.36c-0.07,0.04-0.12,0.12-0.13,0.25c-0.02,0.13-0.03,0.22-0.03,0.29h0.16
		V631.36z M121.38,629.18h0.05v-0.07h-0.05V629.18z M121.91,631.56c0.02,0.01,0.05,0.02,0.11,0.04c0.05,0.02,0.09,0.03,0.11,0.03
		c0.04,0,0.06-0.02,0.06-0.05c0-0.04,0.01-0.06,0.01-0.08c0-0.04-0.01-0.07-0.02-0.1c-0.01-0.03-0.04-0.05-0.09-0.05
		c-0.01,0-0.01,0-0.01,0.01s0,0.01-0.01,0.01h-0.01l-0.13,0.13v0.03V631.56z M122.18,631.08h0.09v-0.15h-0.09V631.08z"/>
	<path d="M125.28,632.91c0.01-0.01,0.02-0.03,0.03-0.06c0.01-0.03,0.02-0.05,0.02-0.07v-0.04v-0.03c0-0.02-0.01-0.04-0.02-0.07
		c-0.01-0.03-0.02-0.04-0.03-0.05c-0.1,0.02-0.18,0.07-0.25,0.15c-0.07,0.08-0.11,0.17-0.11,0.27v0.04
		c0.01,0.02,0.03,0.05,0.07,0.11c0.04,0.05,0.06,0.08,0.06,0.09c0,0.04-0.04,0.07-0.11,0.07c-0.07,0-0.11,0.01-0.13,0.01
		c-0.02,0-0.05,0-0.09-0.01c-0.04,0-0.06-0.01-0.07-0.01c-0.04-0.01-0.06-0.03-0.07-0.06c-0.01-0.03-0.02-0.06-0.03-0.1
		c-0.01-0.04-0.02-0.07-0.03-0.11c-0.01-0.04-0.04-0.06-0.07-0.08c-0.13-0.06-0.24-0.13-0.31-0.21s-0.14-0.17-0.19-0.26
		s-0.08-0.19-0.11-0.3c-0.02-0.11-0.05-0.24-0.07-0.38c0-0.02-0.01-0.03-0.03-0.05s-0.03-0.02-0.04-0.02s-0.02,0.01-0.04,0.02
		s-0.03,0.03-0.03,0.05c-0.01,0.03-0.01,0.08-0.01,0.17c0,0.09,0,0.14,0.01,0.16l-0.15,0.08c0.04-0.07,0.02-0.16-0.04-0.28
		s-0.09-0.21-0.09-0.29c0-0.09,0.02-0.16,0.07-0.2c0.05-0.04,0.07-0.11,0.07-0.21c0-0.07,0-0.14-0.01-0.21s-0.03-0.15-0.05-0.25
		c-0.05,0.07-0.1,0.17-0.13,0.29c-0.03,0.12-0.06,0.21-0.07,0.27c-0.05-0.02-0.08-0.05-0.08-0.09c0-0.04,0-0.08,0-0.11
		c0-0.08,0.01-0.22,0.02-0.43c0.01-0.21,0.03-0.42,0.06-0.64c0.03-0.22,0.06-0.43,0.09-0.62c0.04-0.19,0.07-0.31,0.11-0.35
		c0.06-0.08,0.11-0.14,0.15-0.18c0.04-0.04,0.07-0.07,0.1-0.11c0.03-0.03,0.06-0.07,0.1-0.11c0.04-0.04,0.08-0.11,0.13-0.21
		c0.01-0.02,0.02-0.04,0.03-0.05c0.01-0.02,0.02-0.02,0.03-0.01l0.34,0.12l0.13,0.56h0.19c0,0.02,0,0.07,0.01,0.17
		c0,0.09,0.01,0.15,0.02,0.17s0.02,0.04,0.03,0.07c0,0.02,0.01,0.04,0.03,0.05c0.01,0.01,0.01,0.02,0.01,0.03
		c0,0.03-0.01,0.08-0.03,0.17s-0.03,0.14-0.04,0.17c-0.01,0.02-0.03,0.05-0.07,0.11c-0.04,0.05-0.06,0.08-0.07,0.09
		c0,0.01,0,0.04,0,0.08c0,0.04,0,0.09,0,0.13s0,0.09,0,0.13s0,0.07,0,0.08c0,0.01-0.02,0.03-0.06,0.05
		c-0.04,0.03-0.06,0.05-0.06,0.07v0.21c0,0.07,0.01,0.15,0.03,0.22c0.02,0.08,0.08,0.12,0.17,0.12c0.23,0,0.43-0.06,0.6-0.17
		s0.31-0.25,0.43-0.42s0.22-0.35,0.31-0.55c0.09-0.2,0.17-0.38,0.25-0.55c0.08-0.17,0.16-0.31,0.23-0.42
		c0.08-0.11,0.17-0.17,0.27-0.17c0.1,0,0.18,0.04,0.26,0.12s0.14,0.17,0.19,0.29c0.05,0.11,0.09,0.23,0.12,0.34s0.04,0.22,0.05,0.3
		c0.04-0.04,0.07-0.06,0.09-0.04s0.05,0.04,0.07,0.08s0.03,0.09,0.04,0.16l0.13-0.15c0.02,0,0.03,0.01,0.05,0.03
		c0.01,0.02,0.02,0.03,0.02,0.04s-0.01,0.03-0.03,0.07c-0.02,0.04-0.03,0.06-0.03,0.07v0.09c0,0.08,0.03,0.14,0.08,0.18
		c0.05,0.04,0.12,0.07,0.19,0.08c0.07,0.01,0.15,0.02,0.23,0.01c0.08-0.01,0.14-0.01,0.19-0.01c0.03,0.1,0.08,0.17,0.16,0.23
		c0.08,0.05,0.17,0.1,0.26,0.13s0.19,0.06,0.29,0.09c0.1,0.02,0.18,0.05,0.25,0.09c0.01,0.01,0.03,0.03,0.07,0.07
		c0.04,0.04,0.06,0.06,0.08,0.07c0,0.01,0.02,0,0.05-0.02c0.04-0.02,0.06-0.03,0.07-0.03h0.04h0.04c0.01,0,0.03,0.01,0.07,0.02
		c0.04,0.01,0.08,0.03,0.13,0.04c0.04,0.01,0.09,0.03,0.13,0.04c0.04,0.01,0.07,0.03,0.08,0.03h0.04h0.03
		c0.06-0.03,0.14-0.05,0.23-0.07s0.18-0.05,0.27-0.08c0.09-0.03,0.16-0.07,0.22-0.12c0.06-0.05,0.09-0.12,0.09-0.21
		c0-0.12-0.02-0.27-0.07-0.42c-0.05-0.16-0.11-0.32-0.19-0.47c-0.08-0.16-0.17-0.3-0.27-0.43c-0.1-0.13-0.19-0.23-0.29-0.3
		c-0.05-0.03-0.13-0.07-0.22-0.12c-0.09-0.05-0.19-0.11-0.28-0.17c-0.09-0.06-0.17-0.12-0.24-0.19s-0.1-0.14-0.1-0.21
		c0-0.01,0-0.03,0.01-0.06c0-0.03,0.01-0.05,0.01-0.06l0.15,0.12c0.03-0.14,0.05-0.29,0.07-0.44s0.04-0.3,0.05-0.45
		c0.1-0.04,0.17-0.08,0.22-0.12c0.05-0.04,0.07-0.1,0.07-0.2c0-0.01,0.01-0.02,0.04-0.02c0.03,0,0.05,0,0.08,0
		c0.03,0,0.05,0.01,0.06,0.01c0.01,0,0.01,0.01-0.02,0.01c0-0.02,0.02-0.01,0.06,0.01c0.04,0.03,0.06,0.04,0.07,0.03
		c0.1-0.03,0.14-0.02,0.13,0.01c-0.01,0.04-0.01,0.08-0.01,0.13c0,0.02,0.01,0.04,0.04,0.06c0.03,0.02,0.05,0.05,0.08,0.07
		s0.05,0.05,0.07,0.07s0.01,0.03-0.01,0.04l-0.07,0.36c0,0.01,0,0.06,0.01,0.17c0,0.1,0.03,0.17,0.07,0.21h0.04h0.03
		c0-0.12,0-0.21-0.01-0.28c-0.01-0.07-0.02-0.16-0.03-0.28c0-0.01,0-0.02,0.01-0.04s0.02-0.04,0.03-0.07
		c0.01-0.03,0.02-0.06,0.04-0.09c0.02,0,0.04,0.01,0.07,0.03c0.03,0.02,0.05,0.03,0.06,0.03s0.03,0.01,0.05,0.05
		c0.03,0.03,0.04,0.04,0.05,0.02c0.02,0.06,0.04,0.13,0.07,0.21c0.03,0.07,0.07,0.15,0.11,0.21s0.09,0.12,0.14,0.17
		c0.05,0.04,0.09,0.07,0.14,0.07v-0.17h0.08c0.02,0,0.05,0.04,0.1,0.11c0.05,0.07,0.08,0.13,0.1,0.17c0.01,0.03,0.02,0.08,0.05,0.16
		c0.02,0.08,0.04,0.16,0.07,0.25c0.02,0.08,0.04,0.17,0.06,0.24c0.02,0.08,0.03,0.13,0.03,0.16c0.04,0.07,0.06,0.1,0.08,0.09
		c0.02-0.01,0.04-0.02,0.05-0.03c0.02-0.01,0.04-0.01,0.05,0.02s0.04,0.11,0.08,0.25c0.01,0.02,0.02,0.04,0.04,0.05
		c0.02,0.02,0.04,0.03,0.05,0.03l-0.28,0.76c-0.01,0.02,0,0.03,0.04,0.03s0.08,0,0.13,0.01s0.1,0.02,0.15,0.03
		c0.04,0.01,0.07,0.03,0.08,0.06c0.04,0.1,0.06,0.19,0.07,0.29c0.01,0.1,0.01,0.2,0.01,0.29c0,0.14-0.04,0.26-0.13,0.36
		c-0.09,0.1-0.19,0.19-0.29,0.27c-0.03-0.02-0.05-0.04-0.07-0.08c-0.02-0.04-0.04-0.07-0.06-0.12l-0.07,0.07
		c0,0.01-0.01,0.03-0.02,0.07c-0.01,0.04-0.03,0.07-0.04,0.11c-0.01,0.04-0.03,0.08-0.04,0.11c-0.01,0.03-0.02,0.05-0.03,0.05
		c-0.02,0.02-0.07,0.02-0.15,0.01c-0.08-0.01-0.12-0.01-0.13-0.01c-0.02,0.02-0.03,0.05-0.03,0.09c0,0.04-0.01,0.08-0.02,0.12
		c-0.01,0.04-0.02,0.08-0.04,0.12c-0.02,0.04-0.05,0.05-0.09,0.05c0-0.04,0-0.07-0.01-0.1c-0.01-0.03-0.03-0.05-0.07-0.06
		c-0.02,0-0.04,0.02-0.07,0.05s-0.05,0.06-0.06,0.08c-0.01,0.01,0,0.04,0.02,0.09c0.02,0.05,0.04,0.09,0.05,0.11v0.03
		c0,0.08-0.02,0.19-0.05,0.32c-0.03,0.13-0.09,0.22-0.17,0.27c0-0.01-0.01-0.02-0.03-0.03c-0.02-0.01-0.03-0.02-0.04-0.03v-0.03
		c0-0.07,0.01-0.14,0.03-0.21c0.02-0.07,0.03-0.13,0.03-0.21c-0.07,0-0.1,0.03-0.09,0.09c0.01,0.06-0.03,0.11-0.11,0.15
		c-0.07-0.04-0.12-0.1-0.14-0.17c-0.02-0.07-0.06-0.13-0.11-0.18l0.07-0.07c-0.02-0.04-0.07-0.05-0.15-0.02
		c-0.08,0.03-0.13,0.05-0.16,0.05c0.01-0.03,0.02-0.05,0.04-0.08l0.05-0.08c0-0.02,0.02-0.04,0.06-0.08
		c0.04-0.04,0.07-0.05,0.09-0.05c0.01,0,0.03,0,0.06,0.01s0.05,0.02,0.05,0.04v-0.04c0-0.07-0.05-0.12-0.15-0.14
		s-0.17-0.03-0.22-0.03c0-0.03-0.01-0.05-0.03-0.07l-0.03-0.05c-0.01-0.02-0.03-0.04-0.05-0.07c0.02-0.01,0.04-0.02,0.08-0.03
		s0.06-0.03,0.08-0.05l-0.01-0.01c-0.01,0-0.02,0-0.03-0.01c-0.13,0-0.23,0.05-0.28,0.14s-0.11,0.21-0.17,0.36
		c-0.04-0.04-0.08-0.05-0.09-0.03s-0.04,0.06-0.05,0.11c-0.02,0.05-0.04,0.1-0.07,0.14s-0.07,0.06-0.12,0.05
		c-0.02,0-0.04-0.02-0.07-0.06c-0.03-0.04-0.05-0.06-0.06-0.06h-0.01c-0.01,0-0.02,0-0.03-0.01c-0.01,0-0.01,0-0.01,0.01
		c0,0,0,0.01-0.01,0.01h-0.01c-0.04,0.02-0.07,0.05-0.09,0.11c-0.01,0.05-0.02,0.11-0.03,0.17c-0.01,0.06-0.01,0.14,0,0.24
		c-0.03-0.11-0.06-0.18-0.11-0.21s-0.1-0.06-0.15-0.07s-0.1-0.02-0.15-0.03c-0.04-0.01-0.07-0.04-0.08-0.08
		c0.02-0.06,0.03-0.12,0.03-0.16c0-0.04-0.01-0.08-0.02-0.12c-0.01-0.04-0.04-0.05-0.07-0.05c0.01,0.09-0.03,0.15-0.13,0.17
		c-0.09,0.03-0.16,0.04-0.19,0.04c0.02-0.12,0.02-0.22,0.01-0.31c-0.01-0.09-0.08-0.13-0.19-0.13c-0.07,0-0.12,0.02-0.15,0.06
		c-0.03,0.04-0.06,0.1-0.09,0.17c-0.04-0.04-0.06-0.08-0.08-0.15c-0.02-0.06-0.04-0.12-0.05-0.19c-0.02-0.06-0.04-0.11-0.07-0.16
		c-0.03-0.04-0.07-0.07-0.13-0.07c-0.06,0-0.1,0.01-0.13,0.03c-0.02,0.02-0.05,0.05-0.09,0.11l-0.21-0.25h-0.11
		c0,0.13-0.01,0.22-0.03,0.27s-0.04,0.08-0.06,0.1s-0.04,0.03-0.06,0.05c-0.02,0.01-0.03,0.05-0.03,0.11c0,0.01,0.01,0.03,0.04,0.07
		c0.03,0.04,0.04,0.06,0.04,0.07v0.01c0,0.07-0.02,0.13-0.07,0.19c-0.05,0.06-0.1,0.11-0.17,0.15c-0.06,0.04-0.12,0.08-0.18,0.11
		c-0.06,0.03-0.1,0.05-0.13,0.06c0,0.01-0.02,0.04-0.05,0.09s-0.06,0.09-0.08,0.11c-0.01,0.02-0.02,0.04-0.03,0.08
		c-0.01,0.04-0.02,0.06-0.03,0.07s-0.02,0.01-0.03,0.01h-0.03l-0.04-0.01c-0.01-0.01-0.02-0.04-0.03-0.1
		c-0.01-0.06-0.02-0.09-0.03-0.1l-0.03-0.01c-0.04,0-0.08,0.02-0.1,0.05c-0.02,0.04-0.04,0.07-0.05,0.11
		c-0.01,0.04-0.01,0.08-0.01,0.13c0,0.04,0.01,0.07,0.01,0.08c-0.07,0-0.12-0.03-0.13-0.09s-0.03-0.12-0.03-0.19
		c0-0.07-0.01-0.12-0.02-0.17C125.38,632.92,125.34,632.9,125.28,632.91z M123.49,629.59c-0.02-0.01-0.03,0-0.03,0.02
		s0.01,0.03,0.03,0.03c0.03,0,0.04-0.01,0.04-0.03S123.51,629.59,123.49,629.59z M124.36,632.62c0,0.04,0,0.08,0.01,0.13
		c0,0.05,0.03,0.08,0.07,0.09c0.01,0,0.02-0.01,0.04-0.03s0.03-0.03,0.03-0.04l0.01-0.04c0-0.04-0.02-0.07-0.05-0.09
		C124.43,632.63,124.4,632.62,124.36,632.62z M125,631.7c-0.03,0.01-0.06,0.05-0.11,0.11s-0.1,0.14-0.15,0.23s-0.1,0.16-0.13,0.24
		c-0.04,0.08-0.05,0.13-0.05,0.15h0.11l0.34-0.54V631.7z M124.85,632.7c-0.05,0-0.09,0.02-0.11,0.07c-0.02,0.05-0.03,0.1-0.03,0.14
		h0.15V632.7z M125.45,632.15c0,0.08,0,0.19,0,0.34c0,0.15,0.03,0.26,0.08,0.35v-0.46c0-0.01,0.01-0.03,0.04-0.07
		c0.03-0.04,0.04-0.06,0.04-0.07c0-0.04-0.02-0.07-0.07-0.07C125.5,632.16,125.47,632.15,125.45,632.15z M126.01,631.42l0.07-0.07
		l-0.07-0.08l-0.07,0.08L126.01,631.42z M126.07,631.08c0.01-0.03,0-0.04-0.03-0.04c-0.03,0-0.04,0.01-0.03,0.04
		c0.01,0.03,0.02,0.04,0.04,0.04S126.07,631.11,126.07,631.08z M126.42,632.51h0.07l-0.07-0.08V632.51z M126.9,630.93
		c0,0.02,0.01,0.04,0.03,0.08c0.02,0.04,0.03,0.06,0.04,0.07c0,0.01,0,0.01,0.01,0.01H127c0.01,0,0.02,0,0.03-0.01
		c0.03-0.05,0.08-0.13,0.16-0.23c0.08-0.1,0.12-0.18,0.12-0.23c0-0.04-0.01-0.07-0.02-0.1c-0.01-0.03-0.04-0.05-0.09-0.05
		c-0.01,0-0.01,0-0.01,0.01c0,0,0,0.01-0.01,0.01h-0.01c-0.06,0.04-0.12,0.11-0.18,0.19c-0.06,0.08-0.09,0.16-0.09,0.23V630.93z
		 M127.84,631.36H128c0-0.1-0.04-0.15-0.12-0.15c0,0.01,0,0.01-0.01,0.01h-0.03V631.36z M128.51,632.64l0.07,0.07
		c0.05-0.02,0.08-0.05,0.09-0.1s0.01-0.09,0.01-0.13c-0.04,0-0.07,0.01-0.11,0.03s-0.06,0.05-0.06,0.11V632.64z M128.58,631.82
		l0.07-0.07h-0.07V631.82z M128.79,631.23c0,0.01,0.01,0.04,0.03,0.09c0.02,0.05,0.04,0.09,0.05,0.11c0.01-0.02,0.02-0.04,0.03-0.08
		c0.01-0.04,0.02-0.06,0.02-0.07v-0.04v-0.01c0-0.01-0.01-0.02-0.02-0.04c-0.01-0.02-0.02-0.03-0.03-0.04
		c-0.01,0-0.02,0.01-0.05,0.03C128.8,631.2,128.79,631.22,128.79,631.23z M128.79,631.62c0.02,0.04,0.04,0.09,0.08,0.15
		c0.04,0.05,0.08,0.09,0.12,0.12c0.05-0.01,0.08-0.04,0.09-0.09c0-0.05,0.01-0.08,0.01-0.1s0-0.06-0.01-0.12
		c0-0.06-0.03-0.09-0.09-0.09c-0.02,0-0.05,0.02-0.1,0.05C128.84,631.57,128.81,631.6,128.79,631.62z M128.79,631.96h0.08
		l-0.08-0.07V631.96z M129.42,632.1c-0.04,0-0.05,0.02-0.05,0.07s0.02,0.07,0.05,0.07c0.03,0,0.04-0.02,0.04-0.07
		S129.44,632.1,129.42,632.1z M129.61,628.71c-0.01,0.02,0,0.03,0.01,0.05c0.02,0.01,0.03,0.02,0.04,0.02
		c0.06,0,0.13-0.03,0.19-0.09s0.1-0.12,0.1-0.17c0-0.12-0.08-0.19-0.23-0.19L129.61,628.71z M130.73,632.27
		c-0.07,0-0.11,0.03-0.13,0.08c-0.02,0.05-0.03,0.11-0.04,0.16h0.04c0.07,0,0.11-0.03,0.12-0.09
		C130.72,632.37,130.73,632.32,130.73,632.27z M130.77,631.36c-0.07,0.04-0.12,0.12-0.13,0.25c-0.02,0.13-0.03,0.22-0.03,0.29h0.16
		V631.36z M131.18,629.18h0.05v-0.07h-0.05V629.18z M131.71,631.56c0.02,0.01,0.05,0.02,0.11,0.04c0.05,0.02,0.09,0.03,0.11,0.03
		c0.04,0,0.06-0.02,0.06-0.05c0-0.04,0.01-0.06,0.01-0.08c0-0.04-0.01-0.07-0.02-0.1c-0.01-0.03-0.04-0.05-0.09-0.05
		c-0.01,0-0.01,0-0.01,0.01s0,0.01-0.01,0.01h-0.01l-0.13,0.13v0.03V631.56z M131.97,631.08h0.09v-0.15h-0.09V631.08z"/>
</g>
<g>
</g>
<g>
	<path class="st6" d="M174.06,945H48.94C22.46,945,1,923.54,1,897.06V592.94C1,566.46,22.46,545,48.94,545h125.13
		c26.47,0,47.94,21.46,47.94,47.94v304.13C222,923.54,200.54,945,174.06,945z"/>
</g>
<g>
	<ellipse class="st5" cx="124" cy="639" rx="61" ry="56"/>
</g>
<g>
	<circle cx="52" cy="737" r="21"/>
</g>
<g>
	<path d="M116.74,644.7c0,0.18-0.02,0.36-0.07,0.55s-0.17,0.28-0.37,0.28l-0.04-0.02c-0.01,0-0.04-0.03-0.08-0.09
		s-0.08-0.12-0.12-0.18c-0.04-0.07-0.08-0.13-0.12-0.18c-0.04-0.06-0.07-0.09-0.08-0.11c-0.01,0-0.04-0.02-0.1-0.05
		c-0.05-0.03-0.08-0.06-0.1-0.07v-0.07v-0.05l0.11-0.15c-0.09-0.07-0.16-0.16-0.21-0.27c-0.05-0.11-0.09-0.23-0.13-0.36
		c-0.04-0.12-0.09-0.24-0.14-0.36s-0.13-0.21-0.22-0.27c-0.02-0.02-0.04-0.03-0.05-0.05c-0.02-0.03-0.04-0.06-0.04-0.07
		c0.13-0.05,0.2-0.15,0.2-0.29s0.01-0.29,0.01-0.42c0-0.06,0-0.15-0.01-0.26c-0.01-0.11-0.02-0.21-0.03-0.31
		c-0.02-0.1-0.05-0.18-0.09-0.26c-0.04-0.07-0.1-0.11-0.17-0.11h-0.12c0-0.03,0.01-0.09,0.03-0.17s0.05-0.12,0.1-0.12
		c0.04,0,0.08,0.03,0.13,0.09c0.05,0.06,0.11,0.12,0.16,0.18c0.05,0.07,0.1,0.13,0.13,0.18c0.04,0.06,0.06,0.09,0.07,0.11v-0.15
		v-0.12c-0.01-0.03-0.03-0.09-0.06-0.16c-0.03-0.07-0.04-0.12-0.04-0.14c0-0.03,0.01-0.1,0.04-0.2c0.02-0.1,0.05-0.16,0.07-0.2
		c-0.01,0-0.03,0-0.05-0.01c-0.02-0.01-0.04-0.01-0.05-0.01s-0.02,0-0.04,0.01c-0.01,0.01-0.02,0.01-0.04,0.01h-0.04
		c-0.01,0-0.04,0.02-0.1,0.07c-0.05,0.05-0.08,0.07-0.1,0.07c-0.02,0-0.05-0.06-0.09-0.18c-0.04-0.12-0.07-0.27-0.1-0.43
		c-0.03-0.16-0.06-0.33-0.08-0.49c-0.02-0.16-0.04-0.29-0.04-0.37c-0.02-0.11-0.04-0.21-0.05-0.28c-0.01-0.07-0.02-0.14-0.03-0.21
		c-0.01-0.06-0.01-0.11-0.01-0.12s0.01-0.07,0.02-0.16c0.01-0.09,0.02-0.18,0.04-0.28c0.01-0.1,0.02-0.2,0.03-0.29
		c0-0.1,0.01-0.16,0.01-0.2h0.04c0.13,0,0.26,0.03,0.39,0.1c0.13,0.07,0.25,0.13,0.37,0.2h0.07h0.04c0.02-0.05,0.06-0.13,0.1-0.23
		s0.08-0.18,0.09-0.21c-0.07,0.02-0.15,0.03-0.25,0.05c-0.09,0.02-0.18,0.01-0.26-0.01s-0.15-0.07-0.2-0.13s-0.08-0.16-0.08-0.29
		c0-0.18,0.02-0.33,0.05-0.45s0.05-0.27,0.05-0.45c0-0.15-0.03-0.25-0.08-0.32s-0.13-0.11-0.22-0.15c0.02-0.03,0.06-0.1,0.11-0.21
		s0.08-0.18,0.08-0.21v-0.07c0-0.08-0.02-0.16-0.05-0.23c-0.04-0.07-0.05-0.16-0.05-0.26c0-0.16,0.03-0.34,0.08-0.53
		c0.05-0.19,0.11-0.37,0.18-0.55c0.06-0.18,0.12-0.36,0.17-0.55c0.05-0.19,0.08-0.37,0.08-0.55c0-0.08-0.01-0.13-0.04-0.16
		c-0.02-0.02-0.05-0.05-0.07-0.07s-0.05-0.05-0.07-0.09c-0.02-0.03-0.04-0.1-0.04-0.2c0-0.16,0.02-0.32,0.05-0.45
		s0.12-0.22,0.25-0.26c-0.02-0.29-0.01-0.56,0.03-0.79c0.04-0.23,0.09-0.45,0.14-0.66c0.05-0.21,0.1-0.42,0.15-0.64
		s0.07-0.46,0.07-0.74v-0.05c0-0.03-0.01-0.08-0.04-0.15s-0.04-0.11-0.04-0.12c0-0.1,0.04-0.22,0.12-0.36
		c0.08-0.14,0.15-0.21,0.21-0.21c0.09,0,0.17,0.06,0.22,0.18s0.08,0.23,0.08,0.33c-0.16,0-0.28,0.11-0.34,0.33
		c-0.06,0.22-0.1,0.43-0.1,0.63c0,0.07,0.01,0.14,0.03,0.22s0.08,0.11,0.18,0.07c0.06-0.02,0.11-0.07,0.14-0.15s0.06-0.17,0.09-0.27
		c0.02-0.1,0.04-0.2,0.04-0.29c0.01-0.1,0.01-0.17,0.01-0.22c0.12,0.1,0.22,0.28,0.32,0.54c0.09,0.26,0.17,0.54,0.22,0.85
		s0.09,0.6,0.12,0.9c0.03,0.29,0.04,0.54,0.04,0.74c0,0.07,0,0.2-0.01,0.4c-0.01,0.21-0.01,0.34-0.01,0.41
		c-0.02,0-0.06,0.02-0.1,0.05c-0.05,0.03-0.08,0.07-0.09,0.1v0.02c0,0.13,0.02,0.27,0.06,0.42s0.08,0.27,0.13,0.37v1.79
		c0,0.13,0,0.32,0.01,0.55s0.01,0.47,0.03,0.71s0.03,0.46,0.05,0.66c0.02,0.21,0.06,0.34,0.12,0.41l0.19,2.46h0.09
		c0.06-0.21,0.12-0.4,0.18-0.55c0.06-0.16,0.13-0.31,0.19-0.47c0.06-0.16,0.12-0.31,0.17-0.47s0.09-0.34,0.12-0.55h0.4v-0.96
		c0.16-0.2,0.28-0.48,0.34-0.86c0.06-0.38,0.12-0.79,0.17-1.24s0.1-0.91,0.16-1.38s0.16-0.87,0.32-1.22
		c0.06-0.13,0.09-0.25,0.11-0.37c0.01-0.11,0.09-0.17,0.25-0.17h0.05c0,0.05,0.03,0.16,0.1,0.33s0.13,0.29,0.18,0.36
		c-0.02,0.1-0.05,0.15-0.08,0.15s-0.06,0-0.1,0s-0.08,0.03-0.13,0.1c-0.05,0.07-0.11,0.21-0.18,0.44l0.02,0.07
		c0.02,0,0.04,0.01,0.05,0.04c0.01,0.03,0.02,0.04,0.04,0.04c0.02-0.03,0.04-0.09,0.05-0.16c0.01-0.07,0.03-0.12,0.05-0.14
		l0.04-0.02l0.04,0.02h0.02l0.19,0.57c0.07-0.03,0.12-0.09,0.14-0.18c0.02-0.09,0.04-0.19,0.04-0.31s0.01-0.22,0.03-0.33
		c0.01-0.11,0.04-0.2,0.09-0.28c0.04,0.03,0.1,0.09,0.18,0.17c0.09,0.08,0.18,0.17,0.27,0.26c0.09,0.09,0.18,0.17,0.26,0.25
		c0.08,0.07,0.13,0.13,0.16,0.16c0.02,0.02,0.04,0.1,0.06,0.26c0.02,0.16,0.03,0.25,0.04,0.28c0,0.02,0.03,0.08,0.08,0.18
		s0.09,0.18,0.11,0.23c0.05,0.1,0.12,0.3,0.21,0.6s0.18,0.63,0.27,0.99s0.16,0.7,0.23,1.02c0.06,0.32,0.1,0.54,0.1,0.68
		c0,0.16-0.04,0.3-0.11,0.41s-0.11,0.23-0.11,0.38c0,0.16,0.03,0.26,0.09,0.29c0.06,0.03,0.13,0.05,0.23,0.05v0.07
		c-0.01,0.03-0.05,0.09-0.11,0.16c-0.06,0.07-0.09,0.13-0.11,0.16v0.05v0.05c0.02,0.08,0.06,0.12,0.11,0.12
		c0.05,0.05,0.14,0.13,0.29,0.23c0.15,0.11,0.24,0.18,0.29,0.23c0,0.08,0.03,0.25,0.08,0.52s0.12,0.54,0.19,0.83
		c0.08,0.29,0.15,0.57,0.23,0.81c0.08,0.25,0.14,0.38,0.2,0.42c0.02,0.02,0.09,0,0.2-0.05c0.11-0.05,0.19-0.07,0.24-0.07
		c0-0.59,0.06-1.14,0.19-1.65c0.13-0.51,0.23-1.06,0.32-1.64c0.02-0.1,0.08-0.24,0.17-0.42c0.09-0.18,0.13-0.29,0.13-0.34v-0.05
		c0-0.03-0.01-0.11-0.04-0.22s-0.04-0.19-0.04-0.22c0-0.02,0-0.03-0.01-0.04s-0.01-0.02-0.01-0.04c-0.01-0.02-0.02-0.03-0.02-0.05
		h0.19c0-0.15-0.03-0.28-0.1-0.41s-0.1-0.27-0.1-0.43c0-0.18,0.05-0.27,0.16-0.27h0.07c0.01,0.02,0.04,0.06,0.1,0.12
		c0.05,0.07,0.08,0.12,0.08,0.15c0,0.02-0.01,0.04-0.04,0.07c-0.02,0.03-0.03,0.06-0.03,0.07v0.05c0,0.07,0.01,0.16,0.03,0.27
		c0.02,0.11,0.04,0.23,0.05,0.34s0.04,0.22,0.05,0.33s0.03,0.19,0.03,0.26c0.18-0.08,0.29-0.16,0.35-0.25s0.09-0.21,0.09-0.39
		c0-0.25-0.06-0.48-0.17-0.7c-0.12-0.22-0.18-0.47-0.18-0.75h0.21c0-0.23-0.03-0.39-0.09-0.48s-0.12-0.16-0.19-0.2
		s-0.13-0.09-0.19-0.14c-0.06-0.05-0.09-0.15-0.09-0.29h0.11h0.07c0.02,0.02,0.06,0.04,0.11,0.09s0.08,0.06,0.09,0.06
		s0.04-0.04,0.08-0.12s0.08-0.17,0.13-0.27c0.05-0.1,0.11-0.24,0.19-0.42c0-0.05-0.01-0.12-0.04-0.22c-0.02-0.1-0.05-0.16-0.07-0.2
		c-0.01,0.03-0.04,0.08-0.09,0.15c-0.05,0.07-0.08,0.11-0.11,0.12h-0.04h-0.07c-0.02-0.02-0.07-0.04-0.14-0.07
		c-0.07-0.03-0.11-0.06-0.12-0.07c0.13-0.16,0.24-0.32,0.34-0.47c0.1-0.15,0.15-0.36,0.15-0.64c0-0.13-0.02-0.23-0.07-0.28
		c-0.05-0.06-0.1-0.11-0.15-0.16s-0.11-0.1-0.17-0.15s-0.09-0.12-0.1-0.22c-0.01,0-0.02-0.07-0.02-0.2c0-0.07,0-0.13,0.02-0.2
		c-0.02-0.03-0.06-0.06-0.11-0.07c-0.05-0.02-0.09-0.04-0.11-0.07v-0.05v-0.1c0.02-0.02,0.05-0.06,0.08-0.12s0.04-0.11,0.04-0.15
		v-0.02c0-0.02,0-0.02,0.01-0.02s0.01-0.01,0.01-0.02c0-0.05-0.02-0.09-0.05-0.13s-0.08-0.08-0.12-0.12s-0.09-0.09-0.12-0.16
		s-0.05-0.15-0.05-0.25c0-0.05,0.01-0.11,0.02-0.2s0.02-0.14,0.02-0.17c0.01-0.03,0.03-0.14,0.06-0.33
		c0.03-0.19,0.04-0.31,0.04-0.36c-0.02-0.03-0.06-0.14-0.11-0.33c-0.05-0.19-0.09-0.3-0.11-0.33v-0.12v-0.15
		c0.02-0.07,0.04-0.19,0.06-0.37c0.02-0.18,0.04-0.29,0.06-0.32c0.01,0,0.02-0.01,0.03-0.03c0.01-0.02,0.01-0.02,0.03-0.02
		c0.08,0,0.14,0.06,0.17,0.17c0.03,0.12,0.08,0.17,0.15,0.17c0.09,0,0.17-0.02,0.22-0.07s0.11-0.07,0.17-0.07
		c0.13,0,0.25,0.02,0.36,0.06c0.11,0.04,0.23,0.06,0.34,0.06v-0.12c0-0.05-0.01-0.13-0.04-0.23s-0.05-0.18-0.07-0.23h0.16
		c0.07,0,0.13,0.01,0.18,0.02s0.1,0.07,0.16,0.15c0.09,0.26,0.19,0.56,0.3,0.88s0.2,0.66,0.29,1.01c0.09,0.34,0.16,0.68,0.22,1.02
		c0.06,0.34,0.09,0.64,0.09,0.92v0.15l-0.49-0.15c0.04-0.11,0.03-0.21-0.01-0.29c-0.04-0.08-0.1-0.12-0.18-0.12
		c-0.11,0-0.21,0.04-0.3,0.13c-0.09,0.09-0.19,0.13-0.3,0.13c-0.08,0-0.16-0.11-0.22-0.33c-0.06-0.22-0.12-0.38-0.17-0.48
		c-0.01-0.02-0.04-0.05-0.07-0.1s-0.08-0.1-0.12-0.16c-0.05-0.06-0.09-0.11-0.13-0.16s-0.07-0.08-0.08-0.1h-0.04l-0.02,0.03
		c0,0.1,0.01,0.19,0.04,0.27s0.04,0.18,0.04,0.29c0,0.02,0,0.03-0.01,0.05c-0.01,0.02-0.01,0.04-0.01,0.07
		c-0.01,0.03-0.02,0.06-0.02,0.07c0,0.03-0.02,0.06-0.05,0.09s-0.05,0.04-0.05,0.06c0,0.1,0.01,0.22,0.02,0.38
		c0.01,0.16,0.04,0.31,0.07,0.45c0.04,0.15,0.09,0.27,0.16,0.38c0.07,0.11,0.16,0.16,0.26,0.16c0.06,0,0.09-0.05,0.09-0.15
		c0-0.03-0.01-0.09-0.03-0.16c-0.02-0.07-0.04-0.11-0.06-0.11c0.14,0.05,0.23,0.07,0.28,0.06c0.05-0.01,0.08-0.03,0.11-0.07
		s0.06-0.09,0.11-0.14c0.04-0.05,0.13-0.09,0.27-0.12c0.1-0.02,0.19,0.01,0.25,0.09c0.06,0.07,0.1,0.16,0.12,0.27
		c0.02,0.11,0.04,0.22,0.04,0.34c0.01,0.12,0.01,0.22,0.01,0.28c0.13,0,0.21,0.02,0.24,0.05s0.04,0.14,0.04,0.32
		c0,0.11-0.02,0.2-0.06,0.27s-0.09,0.12-0.14,0.16c-0.05,0.04-0.1,0.09-0.14,0.13s-0.06,0.12-0.06,0.22c0,0.13,0.03,0.23,0.1,0.29
		c0.06,0.07,0.13,0.12,0.2,0.17s0.14,0.1,0.2,0.16c0.06,0.06,0.1,0.14,0.1,0.26c0,0.02-0.01,0.04-0.04,0.07s-0.05,0.05-0.07,0.05
		c-0.01,0-0.04-0.02-0.1-0.06c-0.05-0.04-0.08-0.06-0.1-0.06h-0.1c0,0.08-0.01,0.15-0.02,0.2c-0.01,0.05-0.05,0.07-0.12,0.07
		c-0.04,0-0.08-0.04-0.14-0.11c-0.06-0.07-0.12-0.16-0.18-0.27c-0.06-0.11-0.12-0.21-0.16-0.31c-0.04-0.1-0.06-0.17-0.06-0.22
		l0.02-0.05c0.01,0,0.02-0.01,0.02-0.02c0-0.02,0.01-0.03,0.02-0.05l0.05-0.07v-0.05c0-0.1-0.02-0.16-0.06-0.18
		c-0.04-0.03-0.09-0.04-0.15-0.04c-0.07,0-0.12,0.04-0.15,0.13s-0.04,0.18-0.04,0.28c0,0.03,0.02,0.11,0.05,0.23
		c0.04,0.12,0.07,0.25,0.11,0.39c0.04,0.14,0.08,0.27,0.13,0.39c0.05,0.12,0.08,0.19,0.11,0.21c0.02,0.02,0.09,0.04,0.2,0.06
		s0.17,0.05,0.18,0.09c0.02,0.03,0.04,0.11,0.05,0.22c0.01,0.11,0.02,0.24,0.02,0.38c0,0.14,0,0.27,0,0.39c0,0.12,0,0.2,0,0.23h0.14
		l0.17-0.12c0.02,0,0.05,0.01,0.07,0.04c0.02,0.03,0.04,0.05,0.04,0.09c0,0.1-0.01,0.18-0.04,0.25s-0.06,0.13-0.11,0.18
		c-0.04,0.06-0.08,0.12-0.11,0.18s-0.04,0.15-0.04,0.25c0,0.21,0.02,0.39,0.05,0.54c0.04,0.15,0.05,0.31,0.05,0.49
		c0,0.31-0.03,0.59-0.09,0.83c-0.06,0.25-0.09,0.52-0.11,0.83l-0.19,0.12v-0.05v-0.07c0-0.03,0.01-0.1,0.04-0.21
		c0.02-0.11,0.04-0.18,0.05-0.21c-0.14,0.07-0.22,0.06-0.25-0.03c-0.02-0.08-0.03-0.18-0.03-0.31s-0.01-0.24-0.04-0.34
		c-0.02-0.11-0.09-0.16-0.21-0.16h-0.05c-0.01,0.03-0.05,0.09-0.11,0.17v0.52v0.56c0,0.03,0.01,0.09,0.02,0.16
		c0.01,0.07,0.02,0.16,0.04,0.26c0.01,0.1,0.02,0.19,0.04,0.27s0.02,0.13,0.02,0.15c0,0.18-0.04,0.32-0.12,0.43s-0.2,0.14-0.37,0.11
		v0.12c0,0.1,0.01,0.18,0.04,0.26c0.03,0.07,0.06,0.14,0.11,0.21c0.04,0.07,0.08,0.13,0.11,0.2c0.03,0.07,0.04,0.15,0.04,0.25
		c0,0.33-0.13,0.44-0.4,0.34c-0.2,0.18-0.33,0.43-0.39,0.75s-0.1,0.63-0.1,0.92c-0.01,0-0.01,0,0.01-0.01
		c0.02-0.01,0.01-0.01-0.01-0.01c-0.04-0.03-0.08-0.07-0.15-0.11c-0.06-0.04-0.11-0.09-0.15-0.16c0.01,0.21-0.01,0.45-0.06,0.71
		s-0.17,0.39-0.36,0.39c-0.12,0-0.29-0.05-0.52-0.15c-0.23-0.1-0.4-0.2-0.52-0.29c-0.01,0-0.04-0.02-0.08-0.07
		c-0.04-0.05-0.08-0.11-0.12-0.17c-0.04-0.06-0.08-0.13-0.11-0.18s-0.06-0.09-0.07-0.11c-0.06-0.05-0.12-0.07-0.18-0.05
		c-0.06,0.02-0.11,0.03-0.16,0.03s-0.08-0.02-0.11-0.06c-0.03-0.04-0.04-0.14-0.04-0.28c0-0.05,0.01-0.08,0.04-0.09
		c0.02-0.01,0.05-0.02,0.07-0.04c0.02-0.02,0.05-0.03,0.07-0.05c0.02-0.02,0.04-0.06,0.04-0.12c0-0.13-0.03-0.22-0.08-0.28
		c-0.05-0.06-0.13-0.11-0.22-0.16c0-0.03-0.01-0.1-0.04-0.21s-0.05-0.22-0.07-0.33c-0.02-0.11-0.04-0.22-0.06-0.33
		s-0.03-0.18-0.04-0.23c-0.04-0.1-0.07-0.18-0.1-0.25c-0.03-0.06-0.05-0.13-0.07-0.18s-0.03-0.09-0.03-0.11s0.03-0.06,0.09-0.14
		c0.06-0.07,0.09-0.12,0.1-0.13l0.02-0.05c0-0.05-0.03-0.09-0.1-0.12c-0.06-0.03-0.14-0.07-0.23-0.1c-0.09-0.03-0.18-0.07-0.26-0.12
		c-0.09-0.05-0.16-0.1-0.22-0.15l-0.04-0.02l-0.05,0.02c-0.01,0-0.03,0.01-0.04,0.02c-0.02,0.02-0.04,0.03-0.06,0.05
		c-0.04,0.03-0.06,0.06-0.09,0.07c-0.01,0-0.03-0.02-0.05-0.05c-0.02-0.03-0.04-0.07-0.05-0.1c-0.13-0.33-0.22-0.58-0.27-0.76
		c-0.05-0.18-0.09-0.34-0.11-0.49c-0.02-0.15-0.03-0.31-0.03-0.48c0.01-0.17,0.01-0.43,0.01-0.77c-0.18,0-0.29-0.03-0.35-0.09
		c-0.06-0.06-0.1-0.12-0.11-0.17c-0.02-0.06-0.03-0.12-0.04-0.17c-0.01-0.06-0.04-0.09-0.11-0.09h-0.07
		c-0.05,0.23-0.08,0.45-0.09,0.66c-0.01,0.21-0.02,0.43-0.02,0.66c-0.05,0-0.07,0.02-0.07,0.07c-0.19,0.25-0.35,0.41-0.5,0.5
		c-0.15,0.09-0.35,0.18-0.6,0.28c0,0.03-0.01,0.06-0.04,0.09s-0.04,0.05-0.04,0.06c0,0.03,0.01,0.09,0.03,0.18s0.04,0.19,0.07,0.31
		c0.03,0.11,0.05,0.22,0.07,0.32c0.02,0.1,0.03,0.17,0.03,0.22c0,0.07-0.02,0.14-0.06,0.23c-0.04,0.09-0.09,0.19-0.14,0.29
		s-0.11,0.21-0.17,0.32c-0.06,0.11-0.1,0.21-0.12,0.31c-0.01,0.1-0.03,0.23-0.06,0.39c-0.03,0.16-0.06,0.33-0.1,0.5
		s-0.08,0.34-0.13,0.5s-0.11,0.29-0.17,0.39c-0.02,0.03-0.05,0.04-0.09,0.04s-0.07-0.01-0.11-0.01s-0.07,0.01-0.1,0.02
		c-0.03,0.02-0.04,0.07-0.04,0.15c0,0.1,0.02,0.16,0.06,0.17c0.04,0.02,0.09,0.05,0.14,0.09c0.05,0.04,0.1,0.11,0.16,0.22
		c0.05,0.11,0.1,0.3,0.13,0.58v0.03c0,0.18-0.05,0.34-0.15,0.49c-0.1,0.15-0.21,0.22-0.34,0.22v-0.61h-0.12v0.71h-0.05
		c-0.05,0-0.08-0.01-0.09-0.02c-0.11-0.03-0.19-0.11-0.26-0.23c-0.07-0.12-0.13-0.26-0.17-0.41c-0.05-0.15-0.08-0.3-0.11-0.45
		s-0.04-0.29-0.04-0.41H116.74z M115.07,640.28c0.06,0.13,0.15,0.24,0.26,0.33c0.12,0.09,0.22,0.13,0.32,0.13
		c0-0.18,0.02-0.33,0.06-0.47s0.06-0.29,0.06-0.47c-0.09-0.03-0.17-0.06-0.22-0.09s-0.1-0.04-0.15-0.06
		c-0.05-0.02-0.07-0.03-0.07-0.05c0-0.05,0.02-0.12,0.05-0.22c0.04-0.1,0.07-0.19,0.11-0.27s0.1-0.19,0.17-0.32h-0.09v0.22
		c-0.13,0-0.22-0.06-0.28-0.18s-0.13-0.27-0.23-0.45h-0.09c0,0.07,0,0.16,0,0.29s0.01,0.27,0.02,0.4c0.01,0.14,0.02,0.27,0.03,0.39
		c0.01,0.12,0.02,0.21,0.04,0.26c0.01,0.03,0.05,0.06,0.1,0.09c0.06,0.02,0.09,0.05,0.11,0.09v0.05c0,0.02,0.01,0.03,0.02,0.05
		C115.3,640.19,115.22,640.28,115.07,640.28z M115.28,634.95c-0.06,0-0.09,0.04-0.09,0.13s0.03,0.13,0.09,0.13s0.09-0.04,0.09-0.13
		S115.34,634.95,115.28,634.95z M115.28,632.35l0.11-0.15h-0.11V632.35z M115.47,633.99c-0.05,0-0.07,0.05-0.07,0.14
		s0.02,0.13,0.07,0.13c0.06,0,0.09-0.04,0.09-0.13S115.53,633.99,115.47,633.99z M115.47,636.59c-0.05,0-0.07,0.05-0.07,0.14
		s0.02,0.13,0.07,0.13c0.06,0,0.09-0.04,0.09-0.13S115.53,636.59,115.47,636.59z M116.35,638.49v-0.1h-0.09L116.35,638.49z
		 M116.56,640.84c-0.04-0.02-0.05,0-0.05,0.06s0.02,0.09,0.05,0.09c0.02-0.03,0.04-0.07,0.04-0.1
		C116.6,640.86,116.58,640.84,116.56,640.84z M116.86,637.16h0.09v-0.15h-0.09V637.16z M117.14,641.11c-0.06,0-0.09,0.04-0.09,0.13
		s0.03,0.13,0.09,0.13s0.09-0.04,0.09-0.13S117.2,641.11,117.14,641.11z M118.89,638.14c0.11,0,0.17-0.06,0.19-0.17h-0.19V638.14z
		 M119.19,637.55h0.49c-0.01-0.1-0.05-0.14-0.12-0.13c-0.07,0.01-0.13,0.01-0.17,0.01h-0.19V637.55z M119.38,636.72
		c0.02,0.03,0.06,0.09,0.11,0.16c0.05,0.07,0.08,0.12,0.09,0.13c0.07-0.07,0.14-0.18,0.21-0.34s0.11-0.29,0.11-0.37
		c-0.07,0-0.17,0.02-0.31,0.07c-0.13,0.05-0.2,0.15-0.2,0.29V636.72z M119.49,633.16c-0.06,0-0.09,0.05-0.09,0.15
		c0,0.1,0.03,0.15,0.09,0.15c0.05,0,0.07-0.05,0.07-0.15C119.56,633.21,119.54,633.16,119.49,633.16z M119.68,635.22
		c0.04-0.08,0.07-0.19,0.11-0.33c0.04-0.14,0.06-0.26,0.09-0.36c0.02-0.15,0.05-0.24,0.09-0.28c0.04-0.04,0.07-0.07,0.1-0.09
		c0.03-0.02,0.06-0.03,0.08-0.04c0.02-0.01,0.04-0.05,0.04-0.14v-0.15c-0.11,0-0.22-0.03-0.33-0.1c-0.12-0.07-0.21-0.16-0.26-0.29
		l-0.09,0.12v1.38L119.68,635.22z M120.17,634.95c0.02,0.08,0.06,0.13,0.12,0.15s0.12,0.02,0.18,0.02v-0.17H120.17z M120.17,636.47
		c0.05,0.1,0.11,0.15,0.19,0.15v-0.15H120.17z M120.37,635.64c-0.02-0.02-0.04,0-0.04,0.06s0.01,0.08,0.04,0.06
		c0.04,0,0.05-0.02,0.05-0.06S120.4,635.64,120.37,635.64z M120.77,636.59h0.09v-0.12h-0.09V636.59z M120.86,637.97l0.09-0.15h-0.09
		V637.97z M123.02,640.55c-0.06,0-0.09,0.05-0.09,0.15c0,0.1,0.03,0.15,0.09,0.15s0.09-0.05,0.09-0.15
		C123.1,640.6,123.07,640.55,123.02,640.55z M124.38,644.7v-0.15h-0.09L124.38,644.7z M125.75,628.62l0.12-0.1
		c-0.04-0.08-0.07-0.13-0.11-0.14c-0.04-0.01-0.08-0.01-0.12-0.01h-0.11L125.75,628.62z M125.88,629.45h0.07v-0.15h-0.07V629.45z
		 M126.05,635.51c0-0.07-0.02-0.1-0.05-0.1s-0.05,0.03-0.05,0.1c0.02,0.03,0.05,0.05,0.07,0.05S126.05,635.55,126.05,635.51z
		 M126.14,628.79l0.11-0.17l-0.11-0.1l-0.09,0.1L126.14,628.79z M126.05,640.43h0.09l-0.09-0.15V640.43z M126.33,633.3
		c-0.06,0.02-0.11,0.05-0.15,0.1s-0.06,0.11-0.06,0.2c0.06,0,0.11-0.02,0.16-0.05c0.05-0.03,0.07-0.09,0.07-0.17L126.33,633.3z
		 M126.14,636.33c0.02,0.03,0.07,0.1,0.15,0.2c0.08,0.1,0.12,0.16,0.15,0.2v-0.05v-0.07c0-0.06-0.01-0.19-0.04-0.37
		c-0.02-0.18-0.05-0.29-0.07-0.32c-0.01,0.02-0.04,0.06-0.09,0.12c-0.05,0.07-0.08,0.12-0.11,0.15v0.05V636.33z M126.14,637.82
		c0,0.03,0.01,0.1,0.04,0.21s0.05,0.18,0.06,0.23h0.05c0.06,0,0.12-0.03,0.19-0.09c0.07-0.06,0.12-0.13,0.16-0.21
		c-0.06-0.03-0.13-0.06-0.22-0.1c-0.09-0.03-0.15-0.09-0.18-0.17c-0.01,0-0.03,0.01-0.06,0.04
		C126.15,637.76,126.14,637.79,126.14,637.82z M126.72,632.86c0,0.08,0.01,0.18,0.02,0.28s0.06,0.16,0.16,0.16h0.04l0.11-0.15v-0.05
		c0-0.13-0.04-0.2-0.11-0.22S126.78,632.86,126.72,632.86z M126.82,635.51c-0.05,0-0.07,0.04-0.07,0.12s0.02,0.12,0.07,0.12
		c0.06,0,0.09-0.04,0.09-0.12S126.88,635.51,126.82,635.51z M127.03,636.87c-0.06,0-0.09,0.05-0.09,0.15c0,0.1,0.03,0.15,0.09,0.15
		c0.05,0,0.07-0.05,0.07-0.15C127.1,636.91,127.08,636.87,127.03,636.87z"/>
	<path d="M134.59,645.46c0-0.05-0.01-0.13-0.04-0.26s-0.05-0.21-0.06-0.26c-0.01-0.03-0.04-0.09-0.08-0.18
		c-0.04-0.09-0.07-0.15-0.1-0.18c0,0.02-0.01,0.04-0.04,0.07s-0.04,0.05-0.05,0.05c-0.01,0.02-0.04,0.04-0.09,0.09
		s-0.08,0.06-0.09,0.06c-0.02,0-0.06,0.03-0.1,0.1s-0.07,0.11-0.1,0.12l-0.18-0.22c-0.01,0.02-0.04,0.06-0.08,0.12
		s-0.07,0.1-0.1,0.1l-0.04,0.02l-0.05-0.02c-0.04-0.02-0.1-0.06-0.18-0.12s-0.14-0.1-0.17-0.1c-0.01,0-0.03-0.04-0.04-0.12
		c-0.02-0.08-0.03-0.13-0.04-0.15c-0.03-0.08-0.07-0.12-0.1-0.12c-0.02,0.03-0.05,0.06-0.07,0.07c-0.01,0.02-0.03,0.03-0.05,0.03
		c-0.01,0-0.02,0.01-0.04,0.02c0,0.02-0.01,0.02-0.02,0.02h-0.04h-0.04c-0.01,0-0.02-0.01-0.02-0.02c-0.01-0.03-0.05-0.1-0.11-0.21
		s-0.11-0.17-0.13-0.18c-0.01,0-0.04,0.03-0.09,0.07s-0.08,0.07-0.09,0.07h-0.11h-0.07c-0.03,0-0.1-0.02-0.19-0.06
		c-0.09-0.04-0.15-0.07-0.18-0.09c-0.02-0.02-0.07-0.05-0.14-0.11c-0.07-0.06-0.11-0.09-0.12-0.11c-0.01-0.02-0.02-0.05-0.03-0.11
		s-0.01-0.12-0.02-0.2c-0.01-0.07-0.01-0.14-0.02-0.21s-0.01-0.11-0.01-0.12c-0.02-0.05-0.08-0.16-0.18-0.32
		c-0.09-0.16-0.16-0.26-0.19-0.29c-0.01,0.02-0.03,0.04-0.06,0.06s-0.04,0.04-0.04,0.06c0,0.02-0.02,0.07-0.07,0.17
		c-0.05,0.1-0.08,0.16-0.09,0.2c0,0.02-0.01,0.02-0.02,0.02h-0.04h-0.04c-0.01,0-0.02-0.01-0.02-0.02
		c-0.01-0.02-0.05-0.06-0.12-0.12c-0.07-0.07-0.11-0.11-0.12-0.12c-0.02,0-0.07-0.02-0.14-0.05c-0.07-0.03-0.11-0.06-0.12-0.07
		c-0.01-0.02-0.03-0.1-0.06-0.26c-0.03-0.16-0.04-0.27-0.04-0.36c-0.01-0.03-0.02-0.07-0.02-0.1v-0.15c0-0.03,0-0.08,0.01-0.15
		c0.01-0.07,0.01-0.11,0.01-0.12c0-0.02,0.01-0.04,0.04-0.07c0.03-0.03,0.05-0.05,0.06-0.05h-0.19l-0.18-0.86h-0.11
		c0.01,0.05,0.01,0.14-0.01,0.26c-0.02,0.12-0.04,0.2-0.06,0.23c-0.01,0.02-0.03,0.03-0.06,0.04c-0.03,0.01-0.06,0.01-0.08,0.01
		c-0.01,0-0.03,0-0.06-0.01c-0.03-0.01-0.05-0.02-0.06-0.04c-0.01-0.07-0.03-0.21-0.05-0.43s-0.04-0.36-0.05-0.43
		c-0.01-0.05-0.03-0.14-0.04-0.27s-0.03-0.21-0.04-0.22c0-0.03-0.02-0.06-0.07-0.09c-0.05-0.02-0.08-0.04-0.11-0.04v-1.62
		c-0.02-0.02-0.06-0.06-0.1-0.12s-0.07-0.12-0.08-0.15c0-0.02,0-0.06-0.01-0.12s-0.01-0.11-0.01-0.15c0-0.05,0-0.11,0.01-0.2
		s0.01-0.13,0.01-0.15c0-0.03,0.01-0.12,0.04-0.26c0.03-0.14,0.05-0.21,0.06-0.21c0-0.03,0.01-0.14,0.03-0.33s0.03-0.3,0.04-0.33
		c0-0.02,0.01-0.03,0.02-0.05c0.01-0.02,0.02-0.03,0.02-0.04c0-0.01,0.01-0.02,0.02-0.04l0.04-0.1c0.01-0.03,0.03-0.12,0.05-0.26
		c0.02-0.14,0.03-0.22,0.03-0.26c0-0.02,0.01-0.06,0.02-0.13s0.02-0.15,0.03-0.23s0.01-0.16,0.03-0.23
		c0.01-0.07,0.02-0.12,0.02-0.13c0.01-0.05,0.03-0.14,0.05-0.27c0.02-0.13,0.04-0.21,0.05-0.25c0.01,0,0.03-0.03,0.04-0.09
		s0.03-0.1,0.03-0.13c0.01-0.03,0.04-0.1,0.1-0.2c0.05-0.1,0.08-0.16,0.1-0.2c0-0.02,0.01-0.07,0.03-0.17
		c0.02-0.1,0.04-0.16,0.04-0.2c0.02-0.02,0.04-0.03,0.05-0.05l0.05-0.07c0-0.02,0.01-0.06,0.04-0.12s0.04-0.11,0.05-0.12
		c0.01-0.07,0.07-0.18,0.17-0.33c0.1-0.16,0.16-0.25,0.18-0.28l0.04,0.05c0.01,0.02,0.03,0.03,0.05,0.05
		c0.02,0.02,0.04,0.02,0.05,0.02h0.05h0.04c0.01,0,0.02-0.01,0.04-0.02c0.02-0.02,0.05-0.07,0.1-0.17c0.04-0.1,0.07-0.16,0.08-0.2
		c0.01-0.02,0.04-0.04,0.1-0.06s0.08-0.04,0.1-0.06c0.01-0.02,0.04-0.06,0.08-0.13s0.07-0.12,0.1-0.13c0.01,0,0.04,0,0.09,0.01
		c0.05,0.01,0.08,0,0.09-0.01c0.02,0,0.04-0.05,0.06-0.16c0.02-0.11,0.03-0.18,0.03-0.21c0.06,0.02,0.15,0,0.28-0.06
		c0.13-0.06,0.22-0.12,0.26-0.18c0.02-0.03,0.05-0.13,0.07-0.28c0.02-0.16,0.03-0.26,0.02-0.31l0.04-0.02l0.05,0.02
		c0.02,0.02,0.05,0.05,0.1,0.11s0.06,0.09,0.06,0.11v0.27l0.11,0.1v0.15v0.1c-0.01,0.03-0.03,0.07-0.05,0.1
		c-0.02,0.03-0.04,0.05-0.05,0.05c-0.01,0.02-0.05,0.01-0.1-0.01c-0.06-0.02-0.1-0.04-0.12-0.04c0,0.05-0.01,0.16-0.02,0.34
		c-0.01,0.18-0.01,0.29,0,0.32c0,0.03,0.01,0.08,0.03,0.15s0.04,0.11,0.06,0.12c0.01,0,0.03-0.02,0.04-0.05
		c0.02-0.03,0.03-0.06,0.04-0.1s0.04-0.09,0.08-0.18c0.04-0.09,0.07-0.15,0.1-0.18c-0.02,0.05-0.02,0.14,0.01,0.27
		c0.03,0.13,0.06,0.21,0.08,0.25c0.02,0.02,0.07,0.04,0.13,0.09c0.06,0.04,0.11,0.06,0.13,0.06v0.71l-0.1,0.12
		c-0.01,0-0.03-0.02-0.04-0.05c-0.02-0.03-0.03-0.06-0.03-0.07c-0.01-0.03-0.03-0.1-0.05-0.2c-0.02-0.1-0.04-0.16-0.04-0.2
		c-0.01-0.02-0.03-0.03-0.04-0.05c-0.02-0.02-0.03-0.03-0.04-0.05c-0.01,0-0.02,0-0.03,0.01c-0.01,0.01-0.01,0.01-0.03,0.01h-0.04
		c0,0.02,0,0.05-0.01,0.1c-0.01,0.05-0.01,0.09-0.01,0.12c0,0.03,0.02,0.09,0.05,0.18s0.05,0.15,0.05,0.18
		c-0.01,0.02-0.02,0.02-0.04,0.02s-0.03,0.01-0.05,0.03s-0.05,0.03-0.09,0.05c-0.02,0.03-0.04,0.1-0.06,0.21s-0.03,0.17-0.03,0.18
		c-0.02,0.03-0.06,0.12-0.1,0.25s-0.07,0.21-0.08,0.25l-0.11,0.15c-0.02,0.02-0.06,0.01-0.11-0.01s-0.08-0.04-0.1-0.04v0.56h-0.05
		c-0.05,0-0.07-0.01-0.07-0.02c-0.02-0.02-0.07-0.06-0.15-0.12s-0.12-0.11-0.13-0.12c-0.01,0-0.02,0-0.02,0.01
		c0,0.01-0.01,0.01-0.02,0.01h-0.04c0,0.02-0.01,0.03-0.02,0.05c-0.01,0.02-0.01,0.03,0,0.05c0.01,0.03,0.04,0.11,0.08,0.23
		s0.07,0.21,0.1,0.26c0,0.03-0.01,0.06-0.04,0.09s-0.04,0.04-0.05,0.04s-0.05-0.02-0.12-0.05c-0.07-0.03-0.12-0.06-0.14-0.07
		c-0.01,0-0.03,0-0.05,0.01c-0.02,0.01-0.04,0.01-0.05,0.01c0,0.02,0,0.03,0.01,0.05c0.01,0.02,0.01,0.03,0.01,0.05
		c-0.01,0.03-0.03,0.1-0.06,0.2c-0.03,0.1-0.04,0.16-0.04,0.2v0.05v0.05c0,0.02,0.02,0.04,0.05,0.07s0.05,0.06,0.05,0.07v0.17v0.2
		c-0.01,0.03-0.03,0.14-0.06,0.31s-0.04,0.27-0.04,0.31v0.52c0,0.02-0.01,0.07-0.04,0.17s-0.03,0.16-0.03,0.2
		c-0.01,0.03-0.03,0.16-0.05,0.38s-0.04,0.38-0.05,0.48v0.07v0.05l0.37-0.22l0.07,0.22l-0.07,0.05c-0.01,0.02-0.02,0.02-0.03,0.02
		s-0.01,0.01-0.03,0.02c-0.01,0.02-0.02,0.03-0.04,0.03s-0.03,0.01-0.06,0.04s-0.04,0.05-0.04,0.09v0.05c0,0.02,0,0.03,0.01,0.05
		s0.01,0.03,0.01,0.05h0.19c-0.01,0.02-0.02,0.03-0.02,0.05v0.05c-0.01,0.02-0.03,0.06-0.05,0.12c-0.02,0.07-0.04,0.12-0.04,0.15
		c-0.01,0-0.02,0.01-0.02,0.02v0.05l0.02,0.02c0.01,0.02,0.04,0.04,0.09,0.07c0.05,0.03,0.07,0.06,0.07,0.07s-0.01,0.05-0.04,0.11
		s-0.04,0.1-0.04,0.13v0.05v0.07c0,0.02,0.01,0.04,0.04,0.07c0.02,0.03,0.04,0.06,0.04,0.07c0-0.03,0.01-0.07,0.04-0.1
		c0.03-0.03,0.05-0.05,0.06-0.05h0.02c0.01,0,0.02,0,0.02-0.01c0-0.01,0-0.01,0.02-0.01c0.01,0,0.02,0.01,0.03,0.02
		s0.03,0.05,0.04,0.11s0.03,0.1,0.04,0.13c0,0.02,0.01,0.04,0.03,0.07c0.02,0.03,0.04,0.05,0.06,0.05c0.01,0,0.04,0.02,0.08,0.05
		c0.04,0.03,0.07,0.07,0.1,0.1c0.01,0,0.04,0.05,0.09,0.15c0.05,0.1,0.08,0.16,0.1,0.2c0,0.02,0.01,0.06,0.03,0.12
		c0.02,0.07,0.03,0.11,0.04,0.12c0,0.03,0.01,0.06,0.04,0.09s0.05,0.04,0.07,0.04c0-0.02,0.01-0.06,0.03-0.12s0.04-0.11,0.06-0.12
		h0.04h0.05l0.09,0.12c0.02,0.03,0.05,0.07,0.07,0.12v0.37c0,0.03,0.01,0.06,0.04,0.09s0.05,0.04,0.07,0.04
		c0-0.03,0.01-0.07,0.04-0.12s0.04-0.09,0.05-0.12h0.05h0.04c0.02,0.03,0.11,0.1,0.25,0.21s0.23,0.17,0.25,0.18
		c0.02,0.02,0.07,0.04,0.14,0.06c0.07,0.03,0.12,0.04,0.14,0.04c0.01,0,0.03,0,0.06,0.01c0.03,0.01,0.06,0.01,0.08,0.01h0.09
		c0.01,0,0.02-0.01,0.04-0.02c0.02,0,0.07-0.01,0.14-0.04c0.07-0.02,0.11-0.04,0.12-0.06h0.18h0.1c0.02,0.02,0.07,0.08,0.13,0.18
		s0.11,0.17,0.13,0.18l0.05,0.02c0.01,0,0.02-0.01,0.04-0.02c0.02-0.02,0.07-0.06,0.14-0.12c0.07-0.07,0.12-0.11,0.14-0.15
		c0.02-0.02,0.07-0.04,0.13-0.06s0.11-0.04,0.13-0.04c0.01,0,0.05,0.02,0.12,0.05s0.11,0.05,0.12,0.05
		c0.02,0.02,0.08,0.02,0.18,0.01c0.1-0.01,0.16-0.01,0.18-0.01c0.02,0.02,0.06,0.07,0.1,0.15s0.07,0.12,0.08,0.12
		c0.02,0.03,0.07,0.06,0.13,0.07c0.06,0.02,0.11,0.02,0.13,0.02h0.11h0.09c0.04-0.02,0.06-0.03,0.09-0.05
		c0.05-0.03,0.08-0.05,0.09-0.05h0.14h0.12c0.02,0.02,0.05,0.06,0.09,0.13s0.06,0.11,0.09,0.11c0.04,0.03,0.1,0.03,0.2-0.01
		s0.16-0.06,0.18-0.06c0-0.05-0.01-0.12-0.02-0.22c-0.01-0.1-0.01-0.17,0-0.22c0-0.02,0.01-0.03,0.02-0.05s0.02-0.02,0.03-0.02
		s0.01-0.01,0.03-0.02c0.02-0.02,0.06-0.04,0.11-0.09c0.05-0.04,0.08-0.06,0.09-0.06s0.05,0,0.11,0s0.12,0,0.19,0s0.13,0,0.19,0
		s0.1,0,0.12,0c0.01,0,0.05-0.01,0.11-0.04s0.13-0.05,0.2-0.07c0.07-0.03,0.13-0.05,0.19-0.09c0.06-0.03,0.1-0.05,0.12-0.05
		c0.01,0,0.04,0,0.09,0c0.05,0,0.1,0,0.17,0s0.12,0,0.18,0s0.08,0,0.1,0c0.04-0.02,0.06-0.03,0.09-0.05
		c0.02-0.02,0.04-0.03,0.05-0.05c0.01-0.02,0.02-0.02,0.03-0.02c0.02,0,0.08,0,0.18,0.01c0.09,0.01,0.15,0,0.18-0.01
		c0.01,0,0.04-0.04,0.09-0.11c0.05-0.07,0.08-0.12,0.1-0.13c0.02-0.02,0.11-0.05,0.26-0.11c0.15-0.06,0.26-0.1,0.33-0.13h0.05h0.05
		c0.01,0,0.03,0.02,0.05,0.05c0.02,0.03,0.04,0.06,0.04,0.07c0,0.03,0.01,0.14,0.03,0.33s0.03,0.32,0.04,0.41
		c0,0.03,0,0.08,0.01,0.13c0,0.06,0.01,0.09,0.01,0.11h-0.28c0,0.07-0.01,0.17-0.03,0.32s-0.04,0.3-0.07,0.45
		c-0.03,0.16-0.06,0.3-0.09,0.44c-0.03,0.14-0.06,0.23-0.08,0.28s-0.06,0.12-0.12,0.22c-0.06,0.1-0.13,0.21-0.2,0.32
		s-0.15,0.22-0.22,0.31c-0.07,0.09-0.12,0.14-0.16,0.16c-0.02-0.02-0.08-0.04-0.18-0.06s-0.15-0.04-0.17-0.06h-0.21h-0.14
		c-0.04,0.02-0.1,0.05-0.18,0.11c-0.09,0.06-0.18,0.12-0.27,0.18c-0.09,0.06-0.18,0.13-0.26,0.2s-0.14,0.11-0.18,0.12
		c0-0.05-0.01-0.16-0.03-0.32c-0.02-0.16-0.04-0.26-0.06-0.29c-0.01-0.03-0.05-0.06-0.12-0.07c-0.07-0.02-0.12-0.03-0.14-0.05
		c-0.01,0-0.03-0.02-0.06-0.06c-0.03-0.04-0.04-0.07-0.04-0.09c-0.01,0-0.04-0.01-0.08-0.04c-0.04-0.02-0.07-0.04-0.08-0.06h-0.05
		h-0.05c-0.01,0.02-0.02,0.02-0.03,0.02s-0.01,0.01-0.03,0.02c-0.01,0.02-0.02,0.03-0.02,0.05c-0.01,0.03-0.02,0.1-0.02,0.2
		c0,0.1,0.01,0.16,0.02,0.2c-0.01,0-0.03-0.02-0.06-0.05c-0.03-0.03-0.04-0.06-0.04-0.07c-0.01-0.03-0.03-0.09-0.05-0.18
		c-0.02-0.09-0.04-0.15-0.04-0.18c-0.04-0.08-0.06-0.12-0.09-0.12l-0.35,0.22v0.83c-0.02,0-0.05,0.01-0.09,0.02
		c-0.04,0.02-0.06,0.03-0.09,0.03c-0.01,0.02-0.03,0.06-0.05,0.12s-0.04,0.11-0.05,0.12c-0.02,0.05-0.07,0.12-0.13,0.22
		c-0.06,0.1-0.11,0.16-0.13,0.17s-0.1,0.06-0.22,0.12s-0.2,0.1-0.22,0.1l-0.1,0.15h-0.02h-0.05c-0.04-0.02-0.08-0.04-0.15-0.07
		c-0.06-0.03-0.1-0.06-0.11-0.07c-0.02,0-0.06-0.03-0.11-0.1s-0.07-0.11-0.07-0.12c-0.01-0.03-0.03-0.1-0.05-0.2
		c-0.02-0.1-0.04-0.16-0.05-0.2L134.59,645.46z M129.96,637.23c0,0.02,0.01,0.04,0.04,0.07c0.03,0.03,0.05,0.06,0.06,0.07h0.02h0.05
		l0.05-0.07c0.01-0.02,0.02-0.04,0.04-0.07l-0.16-0.47c-0.01,0-0.03,0.05-0.06,0.15c-0.03,0.1-0.04,0.16-0.04,0.2v0.07V637.23z
		 M132.8,632.15c0.01-0.02,0.03-0.08,0.04-0.18s0.03-0.18,0.03-0.21v-0.05v-0.07c0-0.05-0.01-0.12-0.03-0.21s-0.03-0.14-0.04-0.16
		c-0.01-0.02-0.05-0.08-0.12-0.18s-0.12-0.18-0.14-0.21c-0.01-0.03-0.03-0.07-0.06-0.12c-0.03-0.05-0.04-0.09-0.04-0.12
		c0.02-0.02,0.04-0.03,0.05-0.05l0.05-0.07h0.04h0.04c0.01,0.02,0.02,0.03,0.04,0.04s0.02,0.02,0.04,0.04l0.04,0.05
		c0,0.03,0.01,0.08,0.04,0.15s0.04,0.1,0.05,0.1c0.02,0.03,0.06,0.03,0.1,0c0.04-0.03,0.07-0.05,0.08-0.05v-0.66
		c0.02,0.02,0.05,0.06,0.09,0.12s0.06,0.11,0.09,0.12h0.14h0.12c0.02,0,0.04-0.02,0.06-0.05c0.02-0.03,0.03-0.06,0.03-0.07
		c0.02-0.05,0.04-0.16,0.06-0.32c0.02-0.16,0.03-0.26,0.03-0.29c0.02,0.03,0.07,0.07,0.13,0.12s0.11,0.09,0.13,0.12h0.05h0.05
		c0.01-0.03,0.06-0.09,0.16-0.18s0.16-0.16,0.19-0.21l0.09-0.12c0.01-0.02,0.03-0.06,0.05-0.12s0.04-0.11,0.04-0.12l0.23,0.37v-0.81
		c0.08,0.02,0.16,0.02,0.23,0.02c0.06,0.02,0.12,0.02,0.18,0.02s0.12,0.01,0.17,0.02c0.01,0,0.02,0.01,0.02,0.02
		c0,0.03,0.01,0.05,0.02,0.05l0.04,0.05c0.01,0,0.04,0,0.1-0.01c0.05-0.01,0.08,0,0.1,0.01s0.03,0.08,0.04,0.18
		c0.02,0.11,0.03,0.18,0.04,0.21c0.01,0.02,0.03,0.05,0.04,0.11c0.02,0.06,0.03,0.09,0.04,0.11l0.11,0.15h0.02h0.05
		c0.04-0.03,0.08-0.11,0.12-0.25s0.07-0.22,0.07-0.27c0-0.03-0.03-0.08-0.09-0.13s-0.09-0.09-0.11-0.11l-0.03-0.12
		c-0.01-0.03-0.02-0.07-0.02-0.12h0.95c0.01,0.03,0.03,0.09,0.04,0.18c0.02,0.09,0.03,0.15,0.04,0.18c0.02,0.03,0.06,0.1,0.1,0.2
		c0.04,0.1,0.07,0.16,0.1,0.17h0.04h0.04c-0.01-0.03,0-0.11,0.03-0.25c0.03-0.13,0.06-0.21,0.08-0.25c0.01-0.02,0.07-0.04,0.17-0.06
		s0.16-0.04,0.18-0.06c0-0.02,0.01-0.06,0.04-0.12c0.02-0.06,0.04-0.11,0.05-0.12l0.04-0.02l0.05,0.02
		c0.01,0.02,0.04,0.05,0.09,0.11s0.08,0.1,0.09,0.13h0.05h0.04c0.01-0.02,0.04-0.04,0.09-0.07c0.05-0.03,0.08-0.05,0.09-0.05
		c0.01,0,0.03,0,0.05-0.01c0.02-0.01,0.04-0.01,0.05-0.01v0.66c0.01,0,0.04,0.01,0.08,0.04s0.07,0.04,0.1,0.06
		c0.01,0.03,0.02,0.06,0.04,0.07c0.02,0.03,0.04,0.05,0.05,0.05h0.07c0.01,0,0.04,0.02,0.09,0.06c0.05,0.04,0.08,0.07,0.1,0.09h0.09
		c0.01,0.03,0.03,0.11,0.04,0.23s0.03,0.21,0.04,0.26v0.2v0.15l-0.37-0.22c-0.02,0.02-0.04,0.05-0.06,0.1
		c-0.02,0.05-0.02,0.09-0.01,0.12c0,0.03,0.03,0.1,0.08,0.2c0.05,0.1,0.08,0.16,0.1,0.17v0.39v0.37c0,0.03-0.02,0.06-0.04,0.09
		c-0.03,0.02-0.05,0.04-0.06,0.04s-0.04-0.02-0.09-0.05c-0.02-0.02-0.05-0.04-0.07-0.07c-0.04,0-0.1,0.01-0.19,0.02
		c-0.09,0.02-0.15,0.02-0.18,0.02v0.37c-0.04,0-0.06-0.02-0.09-0.05l-0.18-0.25c-0.04,0.03-0.06,0.06-0.09,0.07
		c-0.01,0.02-0.03,0.02-0.05,0.02c-0.01,0-0.02,0.01-0.04,0.02c-0.02,0-0.07-0.03-0.14-0.1c-0.07-0.06-0.12-0.11-0.14-0.15
		c-0.01-0.02-0.02-0.08-0.04-0.18s-0.02-0.17-0.04-0.18c-0.02-0.03-0.08-0.12-0.17-0.25s-0.16-0.21-0.2-0.25
		c-0.01-0.02-0.04-0.04-0.08-0.07c-0.04-0.03-0.07-0.06-0.1-0.07c-0.01,0-0.06-0.02-0.16-0.05c-0.09-0.03-0.16-0.06-0.19-0.07h-0.05
		h-0.03c-0.01,0.02-0.04,0.04-0.1,0.07c-0.05,0.03-0.08,0.05-0.1,0.05s-0.04-0.01-0.09-0.04s-0.07-0.05-0.07-0.09
		c-0.04,0.03-0.1,0.09-0.19,0.18c-0.09,0.09-0.15,0.15-0.18,0.18c-0.02,0.03-0.08,0.08-0.18,0.15s-0.15,0.1-0.17,0.1
		c-0.02,0.02-0.08,0.04-0.18,0.09s-0.16,0.06-0.18,0.06c-0.01,0.02-0.04,0.04-0.09,0.07c-0.05,0.03-0.08,0.05-0.09,0.05
		c-0.01,0.02-0.07,0.02-0.17,0.01s-0.16-0.01-0.18-0.01c-0.01,0-0.04,0.02-0.08,0.05c-0.04,0.03-0.07,0.05-0.1,0.05
		c0,0.02-0.01,0.04-0.04,0.09s-0.05,0.06-0.06,0.06c0,0.02-0.02,0.04-0.07,0.07c-0.05,0.03-0.08,0.05-0.09,0.05
		c-0.03,0.03-0.11,0.1-0.22,0.2c-0.11,0.1-0.19,0.16-0.24,0.2c0,0.02-0.04,0.06-0.11,0.12c-0.08,0.07-0.13,0.1-0.15,0.1
		c-0.02,0.03-0.05,0.07-0.09,0.1c-0.04,0.03-0.06,0.05-0.09,0.05c-0.01,0.02-0.02,0.02-0.04,0.02h-0.05h-0.05
		c-0.01,0-0.03-0.01-0.05-0.02l-0.04-0.05c-0.02-0.03-0.04-0.06-0.04-0.1v-0.1V632.15z M134.66,642.71c-0.02-0.02-0.04,0-0.04,0.06
		s0.01,0.08,0.04,0.06c0.04-0.02,0.05-0.04,0.05-0.06S134.7,642.73,134.66,642.71z M134.75,644.7c0.01,0.03,0.04,0.1,0.09,0.2
		c0.05,0.1,0.08,0.16,0.09,0.17c0,0.02,0.01,0.02,0.02,0.02h0.04h0.04c0.01,0,0.02-0.01,0.02-0.02c0.01,0,0.03-0.02,0.04-0.05
		s0.03-0.06,0.03-0.07v-0.02c0-0.02,0-0.02,0.01-0.02s0.01-0.01,0.01-0.03s-0.01-0.02-0.02-0.02c0-0.02-0.02-0.04-0.07-0.07
		c-0.05-0.03-0.08-0.06-0.11-0.07h-0.07H134.75z M135.08,629.38c0,0.02,0,0.06,0.01,0.13c0.01,0.07,0.01,0.13,0.01,0.16
		c0.01,0.02,0.03,0.03,0.05,0.05c0.02,0.02,0.04,0.03,0.05,0.05h0.04h0.05c0.01-0.02,0.03-0.03,0.04-0.05
		c0.02-0.02,0.03-0.03,0.03-0.05c0-0.03-0.02-0.08-0.06-0.15c-0.04-0.06-0.07-0.11-0.1-0.12c0-0.02-0.02-0.02-0.05-0.02
		S135.1,629.38,135.08,629.38z M135.21,642.59h0.09l-0.09-0.15V642.59z M135.75,644.87c-0.04,0-0.07,0.03-0.11,0.07
		c-0.01,0.03-0.03,0.09-0.04,0.18s-0.03,0.15-0.04,0.18c-0.01,0.03-0.02,0.08-0.02,0.13s0,0.09,0,0.11h0.11
		c0.01,0,0.03-0.06,0.04-0.18s0.03-0.23,0.04-0.31v-0.1c0-0.03,0-0.05,0.01-0.06C135.75,644.9,135.75,644.89,135.75,644.87z
		 M135.56,643.72c0,0.03,0.01,0.08,0.03,0.13s0.04,0.09,0.06,0.11c0.02-0.02,0.06-0.05,0.11-0.11c0.05-0.06,0.08-0.1,0.09-0.13
		c0.01-0.02,0.02-0.05,0.02-0.1s0-0.08,0-0.1c-0.01,0-0.04,0.01-0.1,0.02s-0.09,0.02-0.11,0.02
		C135.59,643.62,135.56,643.67,135.56,643.72z M135.84,629.92c-0.06,0-0.09,0.04-0.09,0.12c0,0.08,0.03,0.12,0.09,0.12
		c0.04,0,0.05-0.04,0.05-0.12C135.89,629.96,135.88,629.92,135.84,629.92z M136.37,643.96c-0.05,0-0.07,0.04-0.07,0.11
		c0,0.07,0.02,0.11,0.07,0.11c0.05,0,0.07-0.04,0.07-0.11C136.44,644,136.41,643.96,136.37,643.96z M137.7,629.16
		c0,0.02,0.01,0.04,0.04,0.07c0.02,0.03,0.04,0.06,0.05,0.07v-0.07v-0.07c-0.04-0.08-0.06-0.12-0.09-0.12l-0.02,0.05L137.7,629.16z
		 M138.17,644.04c-0.01,0-0.03,0-0.06,0.01c-0.03,0.01-0.05,0.02-0.06,0.04s-0.03,0.05-0.05,0.11s-0.04,0.1-0.04,0.13
		c-0.01,0.03-0.02,0.1-0.03,0.2c-0.01,0.1-0.01,0.16-0.01,0.2c0.01,0,0.03,0,0.06,0s0.05-0.01,0.06-0.03c0.02,0,0.04-0.02,0.06-0.05
		s0.03-0.06,0.03-0.07c0-0.03,0.01-0.12,0.02-0.27S138.17,644.07,138.17,644.04z M137.96,643.45c0.01,0,0.03-0.02,0.04-0.05
		s0.03-0.06,0.04-0.07v-0.05v-0.07L137.96,643.45z M138.23,643.08c-0.05,0-0.07,0.04-0.07,0.12s0.02,0.12,0.07,0.12
		c0.06,0,0.09-0.04,0.09-0.12S138.28,643.08,138.23,643.08z M138.33,630.04c-0.03-0.03-0.05-0.02-0.05,0.04
		c0,0.06,0.02,0.09,0.05,0.09C138.39,630.08,138.39,630.04,138.33,630.04z M138.4,630.78c-0.04,0-0.05,0.04-0.05,0.12
		c0,0.08,0.02,0.12,0.05,0.12c0.06,0,0.09-0.04,0.09-0.12C138.49,630.82,138.46,630.78,138.4,630.78z M138.51,642.83
		c-0.04-0.02-0.05,0-0.05,0.06c0,0.06,0.02,0.08,0.05,0.06C138.56,642.92,138.56,642.88,138.51,642.83z M139.47,644.18
		c-0.05,0-0.07,0.05-0.07,0.14s0.02,0.13,0.07,0.13c0.06,0,0.09-0.04,0.09-0.13S139.53,644.18,139.47,644.18z M139.82,643.27
		c0,0.02,0.01,0.03,0.02,0.05c0,0.02,0.01,0.04,0.03,0.07s0.03,0.05,0.04,0.05s0.03-0.02,0.05-0.05s0.04-0.06,0.04-0.07v-0.05
		c0-0.02,0-0.03,0.01-0.04c0.01-0.01,0.01-0.02,0.01-0.04c0-0.03,0.01-0.07,0.02-0.12h-0.12c-0.01,0-0.03,0.02-0.04,0.05
		c-0.02,0.03-0.03,0.06-0.03,0.07L139.82,643.27z"/>
</g>
<path class="st6" d="M-590,71"/>
</svg>
