<?xml version="1.0" encoding="utf-8"?>
<!-- Generator: Adobe Illustrator 27.0.0, SVG Export Plug-In . SVG Version: 6.00 Build 0)  -->
<svg version="1.1" id="Layer_1" xmlns="http://www.w3.org/2000/svg" xmlns:xlink="http://www.w3.org/1999/xlink" x="0px" y="0px"
	 viewBox="0 0 1080 1080" style="enable-background:new 0 0 1080 1080;" xml:space="preserve">
<style type="text/css">
	.st0{fill:#603813;stroke:#000000;stroke-linecap:round;}
</style>
<g id="Layer_18_00000066514836200626369550000005849732348577649328_">
	<path class="st0" d="M611.89,397.61L510.36,558.39c-20.1,0.09-35.65,10.91-37.22,21.41c-1.74,11.72,12.88,29.86,38.52,31.84
		c53,41.84,106,83.67,158.99,125.48c7.59,24.99,28.51,33.38,39.31,26.65c8.55-5.34,13.3-21.75,9.59-38.88
		c33.85-53.59,67.67-107.19,101.52-160.78c15.69,8.61,32.14,3.9,37.14-5.5c5.62-10.56-0.17-32.6-19.79-41.74
		c-7.51,1.35-14.99,2.67-22.49,4.02L656.93,395.41c0.84-6.6,1.69-13.2,2.5-19.77c-8.04-17.29-26.65-21.63-38.12-12.7
		C612.51,369.8,608.29,384.1,611.89,397.61L611.89,397.61z"/>
</g>
</svg>
