<?xml version="1.0" encoding="UTF-8"?>
<svg xmlns="http://www.w3.org/2000/svg" viewBox="0 0 1080 1080">
  <defs>
    <style>
      .cls-1 {
        fill: #006;
      }

      .cls-2 {
        fill: #fff;
      }

      .cls-3 {
        fill: #09f;
      }
    </style>
  </defs>
  <g id="tekstfarve">
    <rect class="cls-3" x="191" y="220" width="748" height="676"/>
  </g>
  <g id="Fremtid">
    <path class="cls-1" d="M865.72,158H264.28c-54.83,0-99.28,44.45-99.28,99.28V858.72c0,54.83,44.45,99.28,99.28,99.28H865.72c54.83,0,99.28-44.45,99.28-99.28V257.28c0-54.83-44.45-99.28-99.28-99.28Zm-47.95,109.48h12.93l17.58,180.94h-51.09l-.48-11h37.58l-16.51-169.94Zm-44.19,89.31c1.02-5.39,1.88-10.96,2.58-16.7s1.33-11.78,1.88-18.11l1.52,32.93,1.97,44.68-9.3,48.82h-39.84l-1.79-11h27.63l15.35-80.62Zm-34.16-89.31l6.96,41.61-2.45,12.9c-1.8,9.06-3.2,19.34-4.22,30.82-.55-6.87-1.15-13.24-1.82-19.1s-1.43-11.29-2.29-16.29l-8.35-49.94h12.16Zm-9.92,335.58c-3.93-1.67-8.17-2.52-12.71-2.52h-2.78v154.39c-4.27,1.56-8.93,2.47-14,2.71v-168.1h2.78c10.57,0,19.47,4.52,26.71,13.52Zm-70.71-165.64h36.75l4.34-82.03,1.17-33.4c.55,5.31,.9,8.83,1.05,10.55,1.33,11.41,2.38,19.45,3.16,24.14l6.88,42.35-2.61,49.39h-52.03l1.28-11Zm-73.52-138.4h41.95v-31.54h14v42.54h-41.95v15.37h-14v-26.37Zm0,67.27h37.62v-29.9h14v40.9h-37.62v16.66h-14v-27.66Zm-34.87,71.13h76.82v-32.48h14v43.48h-90.82v-11Zm-109.98-140.27h1.76c10.64,0,17.27,3.83,19.91,11.48-1.81-.31-3.77-.48-5.91-.48h-1.76v28.74c-3.09,2.24-6.65,3.38-10.72,3.38h-3.28v-43.12Zm-34.87,140.27h34.63v-63.28l-.35-11.95c.86,2.5,1.58,4.65,2.17,6.45,.59,1.8,1,3.24,1.23,4.34l10.95,29.24v46.21h-48.63v-11Zm-70.48-138.4h37.5v-31.54h14v42.54h-37.5v15.37h-14v-26.37Zm-34.87,138.4h34.87v-71.13h34.92v-29.9h14v40.9h-34.92v71.13h-48.87v-11Zm11.85,159.92h-35.19v-11h35.19v11Zm154.3,0h-51.11v251.08h-89.18v-11h75.18v-251.08h51.11v-68.13h14v79.13Zm10.9-159.92h42.97l-36.33-75.23c18.67-8.36,28.01-23.48,28.01-45.35,0-16.88-4.74-30.57-14.2-41.07,2.67,1.4,5.13,2.97,7.34,4.73,13.91,11.09,20.86,26.88,20.86,47.34,0,21.88-9.34,36.99-28.01,45.35l36.33,75.23h-52.85l-4.12-11Zm101.38,411h-89.18v-11h75.18v-319.21h14v330.21Zm233.54-38.07c-23.24,25.38-57.89,38.07-103.94,38.07h-83.41v-11h69.41c46.05,0,80.7-12.69,103.94-38.07,27.23-29.8,40.85-72.07,40.85-126.82s-16.11-98.88-48.33-129.82c-.62-.6-1.25-1.18-1.88-1.76,5.68,3.78,10.98,8.03,15.88,12.76,32.22,30.94,48.33,74.21,48.33,129.82s-13.62,97.03-40.85,126.82Z"/>
  </g>
  <g id="klode_med_fartstribe" data-name="klode med fartstribe">
    <circle class="cls-2" cx="527.56" cy="487.41" r="32.59"/>
    <path class="cls-3" d="M487.55,486.22c0-5.85,.91-11.46,2.58-16.66-27.6,5.78-57.57,8.96-88.9,8.96-137.21,0-248.44-60.76-248.44-135.71,0-13.85,3.81-27.22,10.87-39.81-17.13,18.53-26.66,39.01-26.66,60.55,0,83.13,141.63,150.52,316.34,150.52,13.95,0,27.68-.43,41.15-1.27-4.39-7.67-6.94-16.79-6.94-26.59Z"/>
  </g>
</svg>