<?xml version="1.0" encoding="utf-8"?>
<!-- Generator: Adobe Illustrator 27.2.0, SVG Export Plug-In . SVG Version: 6.00 Build 0)  -->
<svg version="1.1" id="Layer_1" xmlns="http://www.w3.org/2000/svg" xmlns:xlink="http://www.w3.org/1999/xlink" x="0px" y="0px"
	 viewBox="0 0 840 816" style="enable-background:new 0 0 840 816;" xml:space="preserve">
<style type="text/css">
	.st0{fill:#0099FF;}
	.st1{fill:#000066;}
	.st2{fill:#FFFFFF;}
</style>
<g id="tekstfarve">
	<rect x="61" y="71" class="st0" width="748" height="676"/>
</g>
<g id="Fremtid">
	<path class="st1" d="M735.7,9H134.3C79.4,9,35,53.4,35,108.3v601.4c0,54.8,44.4,99.3,99.3,99.3h601.4c54.8,0,99.3-44.5,99.3-99.3
		V108.3C835,53.4,790.5,9,735.7,9z M687.8,118.5h12.9l17.6,180.9h-51.1l-0.5-11h37.6L687.8,118.5L687.8,118.5z M643.6,207.8
		c1-5.4,1.9-11,2.6-16.7s1.3-11.8,1.9-18.1l1.5,32.9l2,44.7l-9.3,48.8h-39.8l-1.8-11h27.6L643.6,207.8L643.6,207.8z M609.4,118.5
		l7,41.6l-2.5,12.9c-1.8,9.1-3.2,19.3-4.2,30.8c-0.5-6.9-1.2-13.2-1.8-19.1s-1.4-11.3-2.3-16.3l-8.3-49.9H609.4L609.4,118.5z
		 M599.5,454.1c-3.9-1.7-8.2-2.5-12.7-2.5H584V606c-4.3,1.6-8.9,2.5-14,2.7V440.5h2.8C583.4,440.5,592.3,445.1,599.5,454.1
		L599.5,454.1z M528.8,288.4h36.8l4.3-82L571,173c0.5,5.3,0.9,8.8,1,10.5c1.3,11.4,2.4,19.5,3.2,24.1l6.9,42.4l-2.6,49.4h-52
		L528.8,288.4L528.8,288.4z M455.3,150h42v-31.5h14V161h-42v15.4h-14V150z M455.3,217.3h37.6v-29.9h14v40.9h-37.6V245h-14V217.3z
		 M420.4,288.4h76.8v-32.5h14v43.5h-90.8L420.4,288.4L420.4,288.4z M310.4,148.1h1.8c10.6,0,17.3,3.8,19.9,11.5
		c-1.8-0.3-3.8-0.5-5.9-0.5h-1.8v28.7c-3.1,2.2-6.6,3.4-10.7,3.4h-3.3V148.1z M275.5,288.4h34.6v-63.3l-0.4-12
		c0.9,2.5,1.6,4.6,2.2,6.5c0.6,1.8,1,3.2,1.2,4.3l11,29.2v46.2h-48.6L275.5,288.4L275.5,288.4z M205.1,150h37.5v-31.5h14V161h-37.5
		v15.4h-14V150z M170.2,288.4h34.9v-71.1H240v-29.9h14v40.9h-34.9v71.1h-48.9L170.2,288.4L170.2,288.4z M182,448.3h-35.2v-11H182
		V448.3z M336.3,448.3h-51.1v251.1H196v-11h75.2V437.3h51.1v-68.1h14V448.3z M347.2,288.4h43l-36.3-75.2c18.7-8.4,28-23.5,28-45.4
		c0-16.9-4.7-30.6-14.2-41.1c2.7,1.4,5.1,3,7.3,4.7c13.9,11.1,20.9,26.9,20.9,47.3c0,21.9-9.3,37-28,45.4l36.3,75.2h-52.9
		L347.2,288.4z M448.6,699.4h-89.2v-11h75.2V369.2h14L448.6,699.4L448.6,699.4z M682.2,661.3c-23.2,25.4-57.9,38.1-103.9,38.1h-83.4
		v-11h69.4c46,0,80.7-12.7,103.9-38.1c27.2-29.8,40.8-72.1,40.8-126.8s-16.1-98.9-48.3-129.8c-0.6-0.6-1.2-1.2-1.9-1.8
		c5.7,3.8,11,8,15.9,12.8c32.2,30.9,48.3,74.2,48.3,129.8S709.4,631.6,682.2,661.3L682.2,661.3z"/>
</g>
<g id="klode_med_fartstribe">
	<ellipse class="st2" cx="397.6" cy="338.4" rx="32.6" ry="32.6"/>
	<path class="st0" d="M357.5,337.2c0-5.9,0.9-11.5,2.6-16.7c-27.6,5.8-57.6,9-88.9,9c-137.2,0-248.4-60.8-248.4-135.7
		c0-13.9,3.8-27.2,10.9-39.8C16.5,172.5,7,193,7,214.5C7,297.6,148.6,365,323.3,365c14,0,27.7-0.4,41.1-1.3
		C360.1,356.1,357.5,347,357.5,337.2L357.5,337.2z"/>
</g>
</svg>
