<?xml version="1.0" encoding="utf-8"?>
<!-- Generator: Adobe Illustrator 27.0.0, SVG Export Plug-In . SVG Version: 6.00 Build 0)  -->
<svg version="1.1" id="Layer_1" xmlns="http://www.w3.org/2000/svg" xmlns:xlink="http://www.w3.org/1999/xlink" x="0px" y="0px"
	 viewBox="0 0 1080 1080" style="enable-background:new 0 0 1080 1080;" xml:space="preserve">
<style type="text/css">
	.st0{font-family:'Chalkduster';}
	.st1{font-size:12px;}
	.st2{fill:none;}
	.st3{fill:#8C6239;}
	.st4{fill:#FFFFFF;}
	.st5{fill:#C7B299;}
	.st6{font-size:22.2206px;}
	.st7{font-size:72px;}
	.st8{fill:#C7B299;stroke:#000000;stroke-linecap:round;}
	.st9{fill:#6A5C00;stroke:#000000;stroke-linecap:round;}
</style>
<text transform="matrix(1 0 0 1 820.8672 176.7563)" class="st0 st1">Lorem ipsum</text>
<rect x="460.51" y="39.52" class="st2" width="10.23" height="5.33"/>
<path class="st3" d="M732.06,990H390.94c-26.47,0-47.94-21.46-47.94-47.94V429.94c0-26.47,21.46-47.94,47.94-47.94h341.13
	c26.47,0,47.94,21.46,47.94,47.94v512.13C780,968.54,758.54,990,732.06,990z"/>
<ellipse class="st4" cx="577.5" cy="484" rx="78.5" ry="71"/>
<circle cx="436.5" cy="598.5" r="37.5"/>
<rect x="506" y="786" class="st5" width="240" height="16"/>
<rect x="31" y="148" class="st5" width="1018" height="28"/>
<text transform="matrix(0.7145 0 0 1 577.9463 479.7682)" class="st0 st6">WC</text>
<rect x="506" y="671" class="st5" width="240" height="16"/>
<text transform="matrix(1 0 0 1 506.1394 660.0365)" class="st0 st7">spil</text>
<text transform="matrix(1 0 0 1 465.2549 767.5322)" class="st0 st7">settings</text>
<text transform="matrix(1 0 0 1 307.3262 81.7031)" class="st0 st7">bigonkoogers</text>
<path class="st8" d="M1012.51,1311.5H68.49c-37.55,0-67.99-30.44-67.99-67.99v-219.02c0-37.55,30.44-67.99,67.99-67.99h944.02
	c37.55,0,67.99,30.44,67.99,67.99v219.02C1080.5,1281.06,1050.06,1311.5,1012.51,1311.5z"/>
<rect x="-0.5" y="1234.5" class="st9" width="1080" height="21"/>
<rect x="0.5" y="1013.5" class="st9" width="1080" height="21"/>
<rect x="-0.5" y="1052.5" class="st9" width="1080" height="21"/>
<rect x="-0.5" y="1093.5" class="st9" width="1080" height="21"/>
<rect x="-0.5" y="1156.5" class="st9" width="1080" height="21"/>
<rect x="-0.5" y="1195.5" class="st9" width="1080" height="21"/>
</svg>
