<?xml version="1.0" encoding="utf-8"?>
<!-- Generator: Adobe Illustrator 27.0.0, SVG Export Plug-In . SVG Version: 6.00 Build 0)  -->
<svg version="1.1" id="Layer_1" xmlns="http://www.w3.org/2000/svg" xmlns:xlink="http://www.w3.org/1999/xlink" x="0px" y="0px"
	 viewBox="0 0 1080 1080" style="enable-background:new 0 0 1080 1080;" xml:space="preserve">
<style type="text/css">
	.st0{font-family:'MyriadPro-Regular';}
	.st1{font-size:12px;}
	.st2{fill:#070015;}
	.st3{fill:none;stroke:#000000;stroke-miterlimit:10;}
	.st4{fill:none;}
	.st5{font-size:28.9602px;}
</style>
<text transform="matrix(1 0 0 1 568.2344 47.7778)" class="st0 st1">windows load</text>
<path d="M603,69"/>
<g>
	<g>
		<path class="st2" d="M611.18,63.83c0,8.64,0,17.28,0,25.93c0,1.93,3,1.93,3,0c0-8.64,0-17.28,0-25.93
			C614.18,61.9,611.18,61.89,611.18,63.83L611.18,63.83z"/>
	</g>
</g>
<rect x="474.5" y="118.5" class="st3" width="263" height="54"/>
<text transform="matrix(1 0 0 1 584.2842 128.0249)"><tspan x="0" y="0" class="st0 st1">siden  vises</tspan><tspan x="0" y="28.8" class="st0 st1">skjul andre skærme</tspan><tspan x="0" y="43.2" class="st0 st1">vis start skærm</tspan></text>
<g>
	<g>
		<path d="M613.55,189.61c-1.93,8.35-3.85,16.7-5.78,25.05c-0.9,3.9-2.03,7.82-2.67,11.77c-0.47,2.9-0.32,6.04,2.33,7.83
			c0.75,0.51,2.04,0.03,2.2-0.9c0.81-4.63,0.15-9.24-1.95-13.45c-0.86-1.73-3.45-0.21-2.59,1.51c1.72,3.44,2.31,7.35,1.65,11.14
			c0.73-0.3,1.47-0.6,2.2-0.9c-2.1-1.42-0.8-5.29-0.36-7.22c0.88-3.81,1.76-7.62,2.64-11.43c1.74-7.54,3.48-15.08,5.22-22.62
			C616.88,188.53,613.99,187.73,613.55,189.61L613.55,189.61z"/>
	</g>
</g>
<rect x="804.5" y="680.5" class="st3" width="151" height="112"/>
<rect x="261.5" y="662.5" class="st4" width="263" height="54"/>
<text transform="matrix(1 0 0 1 261.5 671.0195)"><tspan x="0" y="0" class="st0 st1">goodreset</tspan><tspan x="0" y="14.4" class="st0 st1">vis elementer igen</tspan><tspan x="0" y="28.8" class="st0 st1">ny random position</tspan><tspan x="0" y="43.2" class="st0 st1">genstart fald-animation</tspan></text>
<rect x="344.5" y="432.5" class="st3" width="202" height="134"/>
<rect x="505.5" y="302.5" class="st3" width="224" height="103"/>
<rect x="580.58" y="245.31" class="st4" width="4.94" height="0"/>
<text transform="matrix(1 0 0 1 590.457 255.1851)" class="st0 st1">klik på start knap</text>
<g>
	<g>
		<path d="M614.58,266.31c0.49,8.23,0.98,16.45,1.47,24.68c0.11,1.92,3.11,1.93,3,0c-0.49-8.23-0.98-16.45-1.47-24.68
			C617.46,264.4,614.46,264.38,614.58,266.31L614.58,266.31z"/>
	</g>
</g>
<text transform="matrix(1 0 0 1 534.2344 315.7407)"><tspan x="0" y="0" class="st0 st1">startspil</tspan><tspan x="0" y="14.4" class="st0 st1">nulstil point  og liv</tspan><tspan x="0" y="28.8" class="st0 st1">skriv point og liv ud</tspan><tspan x="0" y="43.2" class="st0 st1">start timer-animation</tspan><tspan x="0" y="57.6" class="st0 st1">random position og rand   om delay</tspan><tspan x="0" y="72" class="st0 st1">start fald -animationer på elementer</tspan></text>
<g>
	<g>
		<path d="M495.37,349.76c-16.45,1.98-33.11,1.99-49.56,0c-4.76-0.58-9.49-1.34-14.2-2.25c-1.89-0.37-2.69,2.53-0.8,2.89
			c16.55,3.21,33.48,4.44,50.32,3.58c4.76-0.24,9.51-0.66,14.24-1.23C497.26,352.54,497.28,349.53,495.37,349.76L495.37,349.76z"/>
	</g>
</g>
<text transform="matrix(1 0 0 1 363.2842 344.1978)" class="st0 st1">klik på god</text>
<g>
	<g>
		<path d="M385.6,353.96c-0.35,19.75-0.71,39.51-1.06,59.26c-0.03,1.93,2.97,1.93,3,0c0.35-19.75,0.71-39.51,1.06-59.26
			C388.64,352.03,385.64,352.03,385.6,353.96L385.6,353.96z"/>
	</g>
</g>
<text transform="matrix(1 0 0 1 384.2842 441.605)"><tspan x="0" y="0" class="st0 st1">clickgodpude</tspan><tspan x="0" y="14.4" class="st0 st1">få 1 point</tspan><tspan x="0" y="28.8" class="st0 st1">skriv point ud</tspan><tspan x="0" y="43.2" class="st0 st1">afspil lyd good</tspan><tspan x="0" y="57.6" class="st0 st1">start  goodforsvind-animation</tspan></text>
<g>
	<g>
		<path d="M389.45,575.46c2.02,13.32,3.44,26.71,4.29,40.15c0.12,1.92,3.12,1.93,3,0c-0.87-13.71-2.34-27.37-4.4-40.95
			C392.05,572.76,389.16,573.57,389.45,575.46L389.45,575.46z"/>
	</g>
</g>
<text transform="matrix(1 0 0 1 371.2222 629.0859)" class="st0 st1">go odforsvind -animation færdig</text>
<g>
	<g>
		<path d="M389.61,637.9c0.05,6.87,1.04,13.69,2.33,20.42c0.36,1.89,3.26,1.09,2.89-0.8c-1.24-6.48-2.17-13.02-2.22-19.63
			C392.6,635.97,389.6,635.97,389.61,637.9L389.61,637.9z"/>
	</g>
</g>
<g>
	<g>
		<path d="M569.76,406.37c3.21,16.49,5.67,33.11,8.21,49.71c2.55,16.68,5.21,33.37,8.84,49.86c1.81,8.23,3.87,16.41,6.27,24.5
			c1.21,4.09,2.59,8.11,3.89,12.16c1.31,4.08,1.96,8.31,2.06,12.59c0.2,8.51-1.64,16.89-3.67,25.1c-2.1,8.51-4.22,17.01-6.38,25.5
			c-4.21,16.54-8.54,33.05-13.05,49.51c-0.56,2.03-1.12,4.06-1.68,6.09c-0.52,1.86,2.38,2.66,2.89,0.8
			c4.58-16.55,8.98-33.15,13.24-49.79c2.18-8.5,4.28-17.02,6.42-25.53c2.08-8.3,4.29-16.62,5.01-25.18c0.35-4.14,0.3-8.3-0.28-12.43
			c-0.61-4.37-2.05-8.44-3.4-12.62c-2.63-8.11-4.89-16.35-6.87-24.64c-3.94-16.51-6.77-33.25-9.38-50.01
			c-2.61-16.76-5-33.55-8.07-50.23c-0.38-2.07-0.77-4.13-1.17-6.19C572.28,403.68,569.39,404.48,569.76,406.37L569.76,406.37z"/>
	</g>
</g>
<rect x="804.5" y="437.5" class="st3" width="173" height="103"/>
<rect x="240.5" y="652.5" class="st3" width="211" height="90"/>
<text transform="matrix(1 0 0 1 456.4692 680.4814)" class="st0 st1">fald -animation kørt en gang</text>
<g>
	<g>
		<path d="M810.21,357.79c-16.45,1.98-33.11,1.99-49.56,0c-4.76-0.58-9.49-1.34-14.2-2.25c-1.89-0.37-2.69,2.53-0.8,2.89
			c16.55,3.21,33.48,4.44,50.32,3.58c4.76-0.24,9.51-0.66,14.24-1.23C812.1,360.57,812.12,357.56,810.21,357.79L810.21,357.79z"/>
	</g>
</g>
<text transform="matrix(1 0 0 1 363.2842 344.1978)" class="st0 st1">klik på godpude</text>
<text transform="matrix(1 0 0 1 828.9015 364.4232)" class="st0 st1">klik på ondpude</text>
<g>
	<g>
		<path d="M847.13,376.27c-0.35,19.75-0.71,39.51-1.06,59.26c-0.03,1.93,2.97,1.93,3,0c0.35-19.75,0.71-39.51,1.06-59.26
			C850.16,374.34,847.16,374.34,847.13,376.27L847.13,376.27z"/>
	</g>
</g>
<text transform="matrix(0.5417 0 0 1 829.7773 458.2402)" class="st0 st5">clickondpude</text>
<text transform="matrix(1 0 0 1 819.4537 479.0231)"><tspan x="0" y="0" class="st0 st1">mist et liv</tspan><tspan x="0" y="14.4" class="st0 st1">skriv point ud</tspan><tspan x="0" y="28.8" class="st0 st1">afspil lyd bad</tspan><tspan x="0" y="43.2" class="st0 st1">start  badforsvind-animation</tspan></text>
<g>
	<g>
		<path d="M904.84,550.43c0.63,8.92,0.06,17.9-1.76,26.66c-0.91,4.4-2.13,8.74-3.63,12.98c-0.73,2.07-1.53,4.11-2.41,6.12
			c-0.86,1.97-2.02,3.88-2.73,5.91c-0.64,1.85-0.17,4.2,2.01,4.6c1.86,0.34,3.45-0.99,3.12-2.89c-0.33-1.9-3.22-1.09-2.89,0.8
			c-0.07-0.52,0.07-0.8,0.41-0.85c-0.15,0-0.12,0.06,0.08,0.18c0.14-0.44,0.12-0.93,0.32-1.41c0.46-1.08,1.04-2.12,1.53-3.19
			c0.99-2.16,1.91-4.35,2.76-6.58c1.7-4.49,3.07-9.1,4.1-13.78c2.06-9.36,2.78-19,2.11-28.55
			C907.71,548.52,904.71,548.5,904.84,550.43L904.84,550.43z"/>
	</g>
</g>
<text transform="matrix(1 0 0 1 820.7529 622.8027)" class="st0 st1">badforsvind -animation færdig</text>
<g>
	<g>
		<path d="M663.93,415.68c0.95,21.68,4.11,43.25,9.45,64.29c2.66,10.5,5.86,20.85,9.59,31.02c1.82,4.96,4.37,9.93,5.43,15.13
			c0.53,2.62,0.39,5.26-0.85,7.66c-1.08,2.1-2.61,3.91-4.05,5.76c-11.41,14.73-12,34.54-7.76,52.02
			c4.94,20.37,16.42,38.34,23.87,57.78c1.86,4.87,3.93,10.22,2.69,15.49c-1.17,4.98-4.28,9.42-6.32,14.07
			c-4.19,9.54-6.83,19.69-7.81,30.06c-0.25,2.64-0.38,5.28-0.42,7.93c-0.02,1.93,2.98,1.93,3,0c0.14-10.66,2.07-21.23,5.72-31.25
			c1.79-4.9,4.17-9.44,6.46-14.12c2.29-4.7,3.29-9.32,2.25-14.51c-1.01-5.07-3.2-9.96-5.2-14.69c-2.08-4.9-4.34-9.72-6.61-14.54
			c-4.53-9.57-9.14-19.14-12.48-29.21c-5.66-17.07-7.47-37.51,2.36-53.45c2.45-3.98,6.14-7.29,7.74-11.76
			c1.73-4.85,0-9.96-1.79-14.51c-4.01-10.15-7.58-20.46-10.57-30.96c-5.94-20.89-9.72-42.38-11.23-64.04
			c-0.19-2.72-0.34-5.45-0.46-8.18C666.85,413.76,663.85,413.75,663.93,415.68L663.93,415.68z"/>
	</g>
</g>
<g>
	<g>
		<path d="M892.65,641.44c0.86,6.46,0.82,13.04-0.22,19.47c-0.13,0.81,0.21,1.61,1.05,1.85c0.71,0.2,1.72-0.25,1.85-1.05
			c1.09-6.72,1.23-13.52,0.33-20.27c-0.11-0.8-0.61-1.5-1.5-1.5C893.42,639.94,892.54,640.63,892.65,641.44L892.65,641.44z"/>
	</g>
</g>
<rect x="819.4" y="680.8" class="st4" width="131.6" height="54"/>
<text transform="matrix(1 0 0 1 819.3956 689.317)"><tspan x="0" y="0" class="st0 st1">badreset</tspan><tspan x="0" y="14.4" class="st0 st1">vis elementer igen</tspan><tspan x="0" y="28.8" class="st0 st1">ny random position</tspan><tspan x="0" y="43.2" class="st0 st1">genstart fald-animation</tspan></text>
<text transform="matrix(1 0 0 1 658.2776 736.9171)" class="st0 st1">fald -animation kørt en gang</text>
</svg>
