<?xml version="1.0" encoding="UTF-8"?>
<svg id="Layer_2" data-name="Layer 2" xmlns="http://www.w3.org/2000/svg" viewBox="0 0 122 142.5">
  <defs>
    <style>
      .cls-1 {
        fill: #fff;
      }

      .cls-1, .cls-2, .cls-3, .cls-4, .cls-5 {
        stroke: #000;
        stroke-linecap: round;
      }

      .cls-2 {
        fill: #c1272d;
      }

      .cls-3 {
        fill: #b3b3b3;
      }

      .cls-5 {
        fill: none;
      }
    </style>
  </defs>
  <g id="Layer_7" data-name="Layer 7">
    <g id="Layer_13" data-name="Layer 13">
      <g>
        <ellipse class="cls-2" cx="61.94" cy="90.79" rx="52.98" ry="51.21"/>
        <ellipse class="cls-1" cx="84.38" cy="87.37" rx="10.5" ry="10.84" transform="translate(-5.37 169.21) rotate(-88.36)"/>
        <ellipse class="cls-4" cx="81.06" cy="87.46" rx="3.13" ry="3.03"/>
        <ellipse class="cls-1" cx="41.56" cy="87.46" rx="10.66" ry="10.3"/>
        <ellipse class="cls-4" cx="41.56" cy="87.46" rx="3.13" ry="3.03"/>
        <line class="cls-5" x1="77.93" y1="71.7" x2="65.39" y2="82.61"/>
        <line class="cls-5" x1="47.05" y1="70.79" x2="56.91" y2="84.01"/>
        <line class="cls-5" x1="51.16" y1="115.39" x2="63.63" y2="101.95"/>
        <line class="cls-5" x1="48.15" y1="115.8" x2="67.26" y2="114.88"/>
        <path class="cls-5" d="M47.83,129.27c.61-.78,3.89-4.78,10.7-6,6.37-1.14,13.32,.59,17.83,4.42"/>
        <path class="cls-3" d="M10.38,68.49C4.52,64.77-.52,56.21,.68,48.4c1.31-8.56,9.75-14.04,16.17-14.58,4.92-.42,9.11,2.02,9.38,1.18,.38-1.17-8.47-3.55-10.67-10.64C13.11,16.47,18.83,2.59,27.2,.72c7.85-1.76,15.17,7.68,18.11,13.79,2.46,5.11,3.05,10.35,4.53,10.25,1.47-.1,1.16-5.34,3.88-10.25,3.05-5.49,9.61-10.06,16.5-8.67,6.29,1.27,12.43,7.43,12.94,14.19,.55,7.26-5.59,12.79-4.53,14.19,1.13,1.49,6.97-6.3,16.17-7.88,2.27-.39,11.75-1.6,17.14,5.91,3.19,4.45,4.99,12,2.59,15.76-2.88,4.51-10.71,1.81-11,3.55-.3,1.84,8.72,2.95,13.91,11.03,3.28,5.11,5.52,13.75,2.91,17.34-3.22,4.44-13.06,.06-32.67-8.67-10-4.45-11.3-5.73-16.82-7.09-3.6-.89-10.29-2.13-23.94-.39-23.5,2.99-28.53,9.82-36.55,4.73Z"/>
      </g>
    </g>
  </g>
</svg>